<mxfile host="Electron" agent="Mozilla/5.0 (Windows NT 10.0; Win64; x64) AppleWebKit/537.36 (KHTML, like Gecko) draw.io/24.7.17 Chrome/128.0.6613.36 Electron/32.0.1 Safari/537.36" version="24.7.17" pages="4">
  <diagram name="Homepage" id="iDy1sD5-BAdwIuTEHQ4c">
    <mxGraphModel dx="1195" dy="703" grid="1" gridSize="10" guides="1" tooltips="1" connect="1" arrows="1" fold="1" page="1" pageScale="1" pageWidth="850" pageHeight="1100" math="0" shadow="0">
      <root>
        <mxCell id="0" />
        <mxCell id="1" parent="0" />
        <mxCell id="Da4rU9uTIppvMUah9u8--1" value="" style="rounded=0;whiteSpace=wrap;html=1;" vertex="1" parent="1">
          <mxGeometry x="280" y="310" width="560" height="350" as="geometry" />
        </mxCell>
        <mxCell id="Da4rU9uTIppvMUah9u8--2" value="" style="rounded=0;whiteSpace=wrap;html=1;" vertex="1" parent="1">
          <mxGeometry x="280" y="310" width="560" height="20" as="geometry" />
        </mxCell>
        <mxCell id="Da4rU9uTIppvMUah9u8--3" value="" style="rounded=1;whiteSpace=wrap;html=1;" vertex="1" parent="1">
          <mxGeometry x="360" y="315" width="430" height="10" as="geometry" />
        </mxCell>
        <mxCell id="Da4rU9uTIppvMUah9u8--4" value="&lt;font style=&quot;font-size: 6px;&quot;&gt;https:unemployedexperiencedesign.com&lt;/font&gt;" style="text;html=1;align=center;verticalAlign=middle;whiteSpace=wrap;rounded=0;" vertex="1" parent="1">
          <mxGeometry x="320" y="313" width="210" height="10" as="geometry" />
        </mxCell>
        <mxCell id="Da4rU9uTIppvMUah9u8--5" value="rent" style="rounded=0;whiteSpace=wrap;html=1;fontSize=9;" vertex="1" parent="1">
          <mxGeometry x="292" y="335" width="33" height="10" as="geometry" />
        </mxCell>
        <mxCell id="Da4rU9uTIppvMUah9u8--6" value="buy" style="rounded=0;whiteSpace=wrap;html=1;fontSize=9;" vertex="1" parent="1">
          <mxGeometry x="332" y="335" width="33" height="10" as="geometry" />
        </mxCell>
        <mxCell id="Da4rU9uTIppvMUah9u8--7" value="browse" style="rounded=0;whiteSpace=wrap;html=1;fontSize=9;" vertex="1" parent="1">
          <mxGeometry x="372" y="335" width="33" height="10" as="geometry" />
        </mxCell>
        <mxCell id="Da4rU9uTIppvMUah9u8--8" value="saved" style="rounded=0;whiteSpace=wrap;html=1;fontSize=9;" vertex="1" parent="1">
          <mxGeometry x="770" y="335" width="33" height="10" as="geometry" />
        </mxCell>
        <mxCell id="Da4rU9uTIppvMUah9u8--9" value="" style="ellipse;whiteSpace=wrap;html=1;aspect=fixed;" vertex="1" parent="1">
          <mxGeometry x="810" y="332" width="16" height="16" as="geometry" />
        </mxCell>
        <mxCell id="Da4rU9uTIppvMUah9u8--10" value="" style="endArrow=none;html=1;rounded=0;arcSize=0;" edge="1" parent="1">
          <mxGeometry width="50" height="50" relative="1" as="geometry">
            <mxPoint x="280" y="350" as="sourcePoint" />
            <mxPoint x="840" y="351" as="targetPoint" />
          </mxGeometry>
        </mxCell>
        <mxCell id="Da4rU9uTIppvMUah9u8--11" value="help" style="rounded=0;whiteSpace=wrap;html=1;fontSize=9;" vertex="1" parent="1">
          <mxGeometry x="730" y="335" width="33" height="10" as="geometry" />
        </mxCell>
        <mxCell id="Da4rU9uTIppvMUah9u8--12" value="&lt;span style=&quot;white-space: pre;&quot;&gt;&#x9;&lt;/span&gt;search" style="rounded=0;whiteSpace=wrap;html=1;align=left;" vertex="1" parent="1">
          <mxGeometry x="320" y="390" width="470" height="20" as="geometry" />
        </mxCell>
        <mxCell id="Da4rU9uTIppvMUah9u8--13" value="" style="rounded=0;whiteSpace=wrap;html=1;" vertex="1" parent="1">
          <mxGeometry x="504" y="330" width="120" height="20" as="geometry" />
        </mxCell>
        <mxCell id="Da4rU9uTIppvMUah9u8--14" value="" style="endArrow=none;html=1;rounded=0;exitX=0;exitY=1;exitDx=0;exitDy=0;entryX=1;entryY=0;entryDx=0;entryDy=0;" edge="1" parent="1" source="Da4rU9uTIppvMUah9u8--13" target="Da4rU9uTIppvMUah9u8--13">
          <mxGeometry width="50" height="50" relative="1" as="geometry">
            <mxPoint x="474" y="410" as="sourcePoint" />
            <mxPoint x="524" y="360" as="targetPoint" />
          </mxGeometry>
        </mxCell>
        <mxCell id="Da4rU9uTIppvMUah9u8--15" value="" style="endArrow=none;html=1;rounded=0;exitX=0;exitY=0;exitDx=0;exitDy=0;entryX=1;entryY=1;entryDx=0;entryDy=0;" edge="1" parent="1" source="Da4rU9uTIppvMUah9u8--13" target="Da4rU9uTIppvMUah9u8--13">
          <mxGeometry width="50" height="50" relative="1" as="geometry">
            <mxPoint x="514" y="360" as="sourcePoint" />
            <mxPoint x="634" y="340" as="targetPoint" />
          </mxGeometry>
        </mxCell>
        <mxCell id="Da4rU9uTIppvMUah9u8--16" value="&lt;font style=&quot;font-size: 9px;&quot;&gt;about us&lt;/font&gt;" style="rounded=0;whiteSpace=wrap;html=1;fontSize=9;" vertex="1" parent="1">
          <mxGeometry x="412" y="335" width="38" height="10" as="geometry" />
        </mxCell>
        <mxCell id="Da4rU9uTIppvMUah9u8--17" value="" style="html=1;verticalLabelPosition=bottom;align=center;labelBackgroundColor=#ffffff;verticalAlign=top;strokeWidth=2;strokeColor=#000000;shadow=0;dashed=0;shape=mxgraph.ios7.icons.looking_glass;" vertex="1" parent="1">
          <mxGeometry x="325" y="393" width="15" height="15" as="geometry" />
        </mxCell>
        <mxCell id="Da4rU9uTIppvMUah9u8--18" value="" style="shape=image;verticalLabelPosition=bottom;labelBackgroundColor=default;verticalAlign=top;aspect=fixed;imageAspect=0;image=https://icons.veryicon.com/png/o/leisure/crisp-app-icon-library-v3/filter-10.png;" vertex="1" parent="1">
          <mxGeometry x="770" y="392.5" width="15" height="15" as="geometry" />
        </mxCell>
        <mxCell id="Da4rU9uTIppvMUah9u8--19" value="" style="sketch=0;pointerEvents=1;shadow=0;dashed=0;html=1;strokeColor=none;labelPosition=center;verticalLabelPosition=bottom;verticalAlign=top;align=center;fillColor=#505050;shape=mxgraph.mscae.intune.account_portal" vertex="1" parent="1">
          <mxGeometry x="813" y="335" width="10" height="10" as="geometry" />
        </mxCell>
        <mxCell id="Da4rU9uTIppvMUah9u8--20" value="" style="verticalLabelPosition=bottom;shadow=0;dashed=0;align=center;html=1;verticalAlign=top;strokeWidth=1;shape=mxgraph.mockup.graphics.simpleIcon;strokeColor=#999999;" vertex="1" parent="1">
          <mxGeometry x="305" y="550" width="140" height="60" as="geometry" />
        </mxCell>
        <mxCell id="Da4rU9uTIppvMUah9u8--21" value="" style="verticalLabelPosition=bottom;shadow=0;dashed=0;align=center;html=1;verticalAlign=top;strokeWidth=1;shape=mxgraph.mockup.graphics.simpleIcon;strokeColor=#999999;" vertex="1" parent="1">
          <mxGeometry x="494" y="550" width="140" height="60" as="geometry" />
        </mxCell>
        <mxCell id="Da4rU9uTIppvMUah9u8--22" value="" style="verticalLabelPosition=bottom;shadow=0;dashed=0;align=center;html=1;verticalAlign=top;strokeWidth=1;shape=mxgraph.mockup.graphics.simpleIcon;strokeColor=#999999;fontColor=#f6f6f6;" vertex="1" parent="1">
          <mxGeometry x="683" y="550" width="140" height="60" as="geometry" />
        </mxCell>
        <mxCell id="Da4rU9uTIppvMUah9u8--23" value="browse" style="rounded=0;whiteSpace=wrap;html=1;strokeColor=#999999;" vertex="1" parent="1">
          <mxGeometry x="683" y="610" width="140" height="20" as="geometry" />
        </mxCell>
        <mxCell id="Da4rU9uTIppvMUah9u8--24" value="rent" style="rounded=0;whiteSpace=wrap;html=1;strokeColor=#999999;" vertex="1" parent="1">
          <mxGeometry x="494" y="610" width="140" height="20" as="geometry" />
        </mxCell>
        <mxCell id="Da4rU9uTIppvMUah9u8--25" value="buy" style="rounded=0;whiteSpace=wrap;html=1;strokeColor=#999999;" vertex="1" parent="1">
          <mxGeometry x="305" y="610" width="140" height="20" as="geometry" />
        </mxCell>
        <mxCell id="Da4rU9uTIppvMUah9u8--26" value="" style="verticalLabelPosition=bottom;shadow=0;dashed=0;align=center;html=1;verticalAlign=top;strokeWidth=1;shape=mxgraph.mockup.graphics.simpleIcon;strokeColor=#999999;" vertex="1" parent="1">
          <mxGeometry x="325" y="449" width="88" height="60" as="geometry" />
        </mxCell>
        <mxCell id="Da4rU9uTIppvMUah9u8--27" value="" style="verticalLabelPosition=bottom;shadow=0;dashed=0;align=center;html=1;verticalAlign=top;strokeWidth=1;shape=mxgraph.mockup.graphics.simpleIcon;strokeColor=#999999;" vertex="1" parent="1">
          <mxGeometry x="425" y="449" width="88" height="60" as="geometry" />
        </mxCell>
        <mxCell id="Da4rU9uTIppvMUah9u8--28" value="" style="verticalLabelPosition=bottom;shadow=0;dashed=0;align=center;html=1;verticalAlign=top;strokeWidth=1;shape=mxgraph.mockup.graphics.simpleIcon;strokeColor=#999999;" vertex="1" parent="1">
          <mxGeometry x="520" y="449" width="88" height="60" as="geometry" />
        </mxCell>
        <mxCell id="Da4rU9uTIppvMUah9u8--29" value="" style="verticalLabelPosition=bottom;shadow=0;dashed=0;align=center;html=1;verticalAlign=top;strokeWidth=1;shape=mxgraph.mockup.graphics.simpleIcon;strokeColor=#999999;" vertex="1" parent="1">
          <mxGeometry x="615" y="449" width="88" height="60" as="geometry" />
        </mxCell>
        <mxCell id="Da4rU9uTIppvMUah9u8--30" value="" style="verticalLabelPosition=bottom;shadow=0;dashed=0;align=center;html=1;verticalAlign=top;strokeWidth=1;shape=mxgraph.mockup.graphics.simpleIcon;strokeColor=#999999;" vertex="1" parent="1">
          <mxGeometry x="710" y="449" width="88" height="60" as="geometry" />
        </mxCell>
        <mxCell id="Da4rU9uTIppvMUah9u8--31" value="" style="rounded=0;whiteSpace=wrap;html=1;strokeColor=#999999;" vertex="1" parent="1">
          <mxGeometry x="325" y="509" width="88" height="20" as="geometry" />
        </mxCell>
        <mxCell id="Da4rU9uTIppvMUah9u8--32" value="" style="rounded=0;whiteSpace=wrap;html=1;strokeColor=#999999;" vertex="1" parent="1">
          <mxGeometry x="425" y="509" width="88" height="20" as="geometry" />
        </mxCell>
        <mxCell id="Da4rU9uTIppvMUah9u8--33" value="" style="rounded=0;whiteSpace=wrap;html=1;strokeColor=#999999;" vertex="1" parent="1">
          <mxGeometry x="520" y="509" width="88" height="20" as="geometry" />
        </mxCell>
        <mxCell id="Da4rU9uTIppvMUah9u8--34" value="" style="rounded=0;whiteSpace=wrap;html=1;strokeColor=#999999;" vertex="1" parent="1">
          <mxGeometry x="615" y="509" width="88" height="20" as="geometry" />
        </mxCell>
        <mxCell id="Da4rU9uTIppvMUah9u8--35" value="" style="rounded=0;whiteSpace=wrap;html=1;strokeColor=#999999;" vertex="1" parent="1">
          <mxGeometry x="710" y="509" width="88" height="20" as="geometry" />
        </mxCell>
        <mxCell id="Da4rU9uTIppvMUah9u8--36" value="popular listings" style="rounded=0;whiteSpace=wrap;html=1;" vertex="1" parent="1">
          <mxGeometry x="428" y="418" width="272" height="20" as="geometry" />
        </mxCell>
        <mxCell id="Da4rU9uTIppvMUah9u8--37" value="" style="rounded=0;whiteSpace=wrap;html=1;fontColor=#007FFF;strokeColor=#007FFF;" vertex="1" parent="1">
          <mxGeometry x="20" y="265" width="210" height="465" as="geometry" />
        </mxCell>
        <mxCell id="Da4rU9uTIppvMUah9u8--38" value="Annotations" style="rounded=0;whiteSpace=wrap;html=1;fontColor=#007FFF;strokeColor=#007FFF;fontSize=15;" vertex="1" parent="1">
          <mxGeometry x="20" y="265" width="210" height="45" as="geometry" />
        </mxCell>
        <mxCell id="tsKR4megN_nvngVDNNL--1" value="" style="verticalLabelPosition=bottom;verticalAlign=top;html=1;shape=mxgraph.basic.drop;strokeColor=#377df7;direction=east;fontColor=#007FFF;" vertex="1" parent="1">
          <mxGeometry x="302" y="345" width="16" height="26" as="geometry" />
        </mxCell>
        <mxCell id="tsKR4megN_nvngVDNNL--2" value="1" style="text;html=1;align=center;verticalAlign=middle;resizable=0;points=[];autosize=1;strokeColor=none;fillColor=none;fontColor=#007FFF;" vertex="1" parent="1">
          <mxGeometry x="295" y="345" width="30" height="30" as="geometry" />
        </mxCell>
        <mxCell id="p_-apcPcVA06pHtRSgmr-1" value="1. User clicks rent. Autofills filter to rent instead of buy" style="text;html=1;align=left;verticalAlign=middle;whiteSpace=wrap;rounded=0;fontColor=#0066CC;" vertex="1" parent="1">
          <mxGeometry x="20" y="310" width="210" height="60" as="geometry" />
        </mxCell>
        <mxCell id="p_-apcPcVA06pHtRSgmr-2" value="" style="verticalLabelPosition=bottom;verticalAlign=top;html=1;shape=mxgraph.basic.drop;strokeColor=#377df7;direction=east;fontColor=#007FFF;" vertex="1" parent="1">
          <mxGeometry x="556" y="630" width="16" height="26" as="geometry" />
        </mxCell>
        <mxCell id="p_-apcPcVA06pHtRSgmr-3" value="2" style="text;html=1;align=center;verticalAlign=middle;resizable=0;points=[];autosize=1;strokeColor=none;fillColor=none;fontColor=#007FFF;" vertex="1" parent="1">
          <mxGeometry x="549" y="630" width="30" height="30" as="geometry" />
        </mxCell>
        <mxCell id="p_-apcPcVA06pHtRSgmr-4" value="2. User can also click the large rent button at the bottom of the screen and it will have the same effect" style="text;html=1;align=left;verticalAlign=middle;whiteSpace=wrap;rounded=0;fontColor=#0066CC;" vertex="1" parent="1">
          <mxGeometry x="20" y="360" width="210" height="60" as="geometry" />
        </mxCell>
        <mxCell id="p_-apcPcVA06pHtRSgmr-14" value="" style="endArrow=none;html=1;rounded=0;fontColor=#B3B3B3;strokeColor=#999999;" edge="1" parent="1">
          <mxGeometry width="50" height="50" relative="1" as="geometry">
            <mxPoint x="288" y="320" as="sourcePoint" />
            <mxPoint x="291" y="316" as="targetPoint" />
          </mxGeometry>
        </mxCell>
        <mxCell id="p_-apcPcVA06pHtRSgmr-15" value="" style="endArrow=none;html=1;rounded=0;fontColor=#B3B3B3;strokeColor=#999999;" edge="1" parent="1">
          <mxGeometry width="50" height="50" relative="1" as="geometry">
            <mxPoint x="288" y="320" as="sourcePoint" />
            <mxPoint x="295" y="320" as="targetPoint" />
          </mxGeometry>
        </mxCell>
        <mxCell id="p_-apcPcVA06pHtRSgmr-16" value="" style="endArrow=none;html=1;rounded=0;fontColor=#B3B3B3;strokeColor=#999999;strokeWidth=1;" edge="1" parent="1">
          <mxGeometry width="50" height="50" relative="1" as="geometry">
            <mxPoint x="288" y="320" as="sourcePoint" />
            <mxPoint x="291" y="324" as="targetPoint" />
          </mxGeometry>
        </mxCell>
        <mxCell id="p_-apcPcVA06pHtRSgmr-17" value="" style="endArrow=none;html=1;rounded=0;fontColor=#B3B3B3;strokeColor=#999999;" edge="1" parent="1">
          <mxGeometry width="50" height="50" relative="1" as="geometry">
            <mxPoint x="309" y="320" as="sourcePoint" />
            <mxPoint x="305" y="316" as="targetPoint" />
          </mxGeometry>
        </mxCell>
        <mxCell id="p_-apcPcVA06pHtRSgmr-18" value="" style="endArrow=none;html=1;rounded=0;fontColor=#B3B3B3;strokeColor=#999999;" edge="1" parent="1">
          <mxGeometry width="50" height="50" relative="1" as="geometry">
            <mxPoint x="309" y="320" as="sourcePoint" />
            <mxPoint x="302" y="320" as="targetPoint" />
          </mxGeometry>
        </mxCell>
        <mxCell id="p_-apcPcVA06pHtRSgmr-19" value="" style="endArrow=none;html=1;rounded=0;fontColor=#B3B3B3;strokeColor=#999999;strokeWidth=1;" edge="1" parent="1">
          <mxGeometry width="50" height="50" relative="1" as="geometry">
            <mxPoint x="309" y="320" as="sourcePoint" />
            <mxPoint x="305" y="324" as="targetPoint" />
          </mxGeometry>
        </mxCell>
        <mxCell id="p_-apcPcVA06pHtRSgmr-20" value="" style="html=1;verticalLabelPosition=bottom;align=center;labelBackgroundColor=#ffffff;verticalAlign=top;strokeWidth=1;strokeColor=#999999;shadow=0;dashed=0;shape=mxgraph.ios7.icons.reload;direction=south;" vertex="1" parent="1">
          <mxGeometry x="320" y="316" width="8" height="8" as="geometry" />
        </mxCell>
        <mxCell id="p_-apcPcVA06pHtRSgmr-21" value="" style="html=1;verticalLabelPosition=bottom;align=center;labelBackgroundColor=#ffffff;verticalAlign=top;strokeWidth=1;strokeColor=#999999;shadow=0;dashed=0;shape=mxgraph.ios7.icons.home;" vertex="1" parent="1">
          <mxGeometry x="340" y="315" width="9" height="9" as="geometry" />
        </mxCell>
        <mxCell id="KiCjVY4eJHljb8GqlWzB-1" value="messages" style="rounded=0;whiteSpace=wrap;html=1;fontSize=9;" vertex="1" parent="1">
          <mxGeometry x="670" y="335" width="53" height="10" as="geometry" />
        </mxCell>
      </root>
    </mxGraphModel>
  </diagram>
  <diagram id="a_vSRE_fqBxy0IxM0plT" name="Listings">
    <mxGraphModel dx="1195" dy="703" grid="1" gridSize="10" guides="1" tooltips="1" connect="1" arrows="1" fold="1" page="1" pageScale="1" pageWidth="850" pageHeight="1100" math="0" shadow="0">
      <root>
        <mxCell id="0" />
        <mxCell id="1" parent="0" />
        <mxCell id="28wzgkKRIZObeN1bCAAt-1" value="" style="rounded=0;whiteSpace=wrap;html=1;fontColor=#007FFF;strokeColor=#007FFF;" vertex="1" parent="1">
          <mxGeometry x="20" y="265" width="210" height="465" as="geometry" />
        </mxCell>
        <mxCell id="28wzgkKRIZObeN1bCAAt-2" value="Annotations" style="rounded=0;whiteSpace=wrap;html=1;fontColor=#007FFF;strokeColor=#007FFF;fontSize=15;" vertex="1" parent="1">
          <mxGeometry x="20" y="265" width="210" height="45" as="geometry" />
        </mxCell>
        <mxCell id="-nKe98HKUG9GQoOS23Os-1" value="" style="rounded=0;whiteSpace=wrap;html=1;" vertex="1" parent="1">
          <mxGeometry x="260" y="310" width="560" height="350" as="geometry" />
        </mxCell>
        <mxCell id="-nKe98HKUG9GQoOS23Os-2" value="" style="rounded=0;whiteSpace=wrap;html=1;" vertex="1" parent="1">
          <mxGeometry x="260" y="310" width="560" height="20" as="geometry" />
        </mxCell>
        <mxCell id="-nKe98HKUG9GQoOS23Os-3" value="" style="rounded=1;whiteSpace=wrap;html=1;" vertex="1" parent="1">
          <mxGeometry x="340" y="315" width="430" height="10" as="geometry" />
        </mxCell>
        <mxCell id="-nKe98HKUG9GQoOS23Os-4" value="&lt;font style=&quot;font-size: 6px;&quot;&gt;https:unemployedexperiencedesign.com&lt;/font&gt;" style="text;html=1;align=center;verticalAlign=middle;whiteSpace=wrap;rounded=0;" vertex="1" parent="1">
          <mxGeometry x="300" y="313" width="210" height="10" as="geometry" />
        </mxCell>
        <mxCell id="-nKe98HKUG9GQoOS23Os-5" value="rent" style="rounded=0;whiteSpace=wrap;html=1;fontSize=9;" vertex="1" parent="1">
          <mxGeometry x="272" y="335" width="33" height="10" as="geometry" />
        </mxCell>
        <mxCell id="-nKe98HKUG9GQoOS23Os-6" value="buy" style="rounded=0;whiteSpace=wrap;html=1;fontSize=9;" vertex="1" parent="1">
          <mxGeometry x="312" y="335" width="33" height="10" as="geometry" />
        </mxCell>
        <mxCell id="-nKe98HKUG9GQoOS23Os-7" value="browse" style="rounded=0;whiteSpace=wrap;html=1;fontSize=9;" vertex="1" parent="1">
          <mxGeometry x="352" y="335" width="33" height="10" as="geometry" />
        </mxCell>
        <mxCell id="-nKe98HKUG9GQoOS23Os-8" value="saved" style="rounded=0;whiteSpace=wrap;html=1;fontSize=9;" vertex="1" parent="1">
          <mxGeometry x="750" y="335" width="33" height="10" as="geometry" />
        </mxCell>
        <mxCell id="-nKe98HKUG9GQoOS23Os-9" value="" style="ellipse;whiteSpace=wrap;html=1;aspect=fixed;" vertex="1" parent="1">
          <mxGeometry x="790" y="332" width="16" height="16" as="geometry" />
        </mxCell>
        <mxCell id="-nKe98HKUG9GQoOS23Os-10" value="" style="endArrow=none;html=1;rounded=0;exitX=0.003;exitY=0.162;exitDx=0;exitDy=0;exitPerimeter=0;arcSize=0;" edge="1" parent="1">
          <mxGeometry width="50" height="50" relative="1" as="geometry">
            <mxPoint x="259.99999999999994" y="350.00000000000006" as="sourcePoint" />
            <mxPoint x="820" y="351" as="targetPoint" />
          </mxGeometry>
        </mxCell>
        <mxCell id="-nKe98HKUG9GQoOS23Os-11" value="help" style="rounded=0;whiteSpace=wrap;html=1;fontSize=9;" vertex="1" parent="1">
          <mxGeometry x="710" y="335" width="33" height="10" as="geometry" />
        </mxCell>
        <mxCell id="-nKe98HKUG9GQoOS23Os-12" value="" style="rounded=0;whiteSpace=wrap;html=1;" vertex="1" parent="1">
          <mxGeometry x="490" y="330" width="120" height="20" as="geometry" />
        </mxCell>
        <mxCell id="-nKe98HKUG9GQoOS23Os-13" value="" style="endArrow=none;html=1;rounded=0;exitX=0;exitY=1;exitDx=0;exitDy=0;entryX=1;entryY=0;entryDx=0;entryDy=0;" edge="1" parent="1" source="-nKe98HKUG9GQoOS23Os-12" target="-nKe98HKUG9GQoOS23Os-12">
          <mxGeometry width="50" height="50" relative="1" as="geometry">
            <mxPoint x="460" y="410" as="sourcePoint" />
            <mxPoint x="510" y="360" as="targetPoint" />
          </mxGeometry>
        </mxCell>
        <mxCell id="-nKe98HKUG9GQoOS23Os-14" value="" style="endArrow=none;html=1;rounded=0;exitX=0;exitY=0;exitDx=0;exitDy=0;entryX=1;entryY=1;entryDx=0;entryDy=0;" edge="1" parent="1" source="-nKe98HKUG9GQoOS23Os-12" target="-nKe98HKUG9GQoOS23Os-12">
          <mxGeometry width="50" height="50" relative="1" as="geometry">
            <mxPoint x="500" y="360" as="sourcePoint" />
            <mxPoint x="620" y="340" as="targetPoint" />
          </mxGeometry>
        </mxCell>
        <mxCell id="-nKe98HKUG9GQoOS23Os-15" value="&lt;font style=&quot;font-size: 9px;&quot;&gt;about us&lt;/font&gt;" style="rounded=0;whiteSpace=wrap;html=1;fontSize=9;" vertex="1" parent="1">
          <mxGeometry x="392" y="335" width="38" height="10" as="geometry" />
        </mxCell>
        <mxCell id="-nKe98HKUG9GQoOS23Os-16" value="" style="sketch=0;pointerEvents=1;shadow=0;dashed=0;html=1;strokeColor=none;labelPosition=center;verticalLabelPosition=bottom;verticalAlign=top;align=center;fillColor=#505050;shape=mxgraph.mscae.intune.account_portal" vertex="1" parent="1">
          <mxGeometry x="793" y="335" width="10" height="10" as="geometry" />
        </mxCell>
        <mxCell id="-nKe98HKUG9GQoOS23Os-17" value="&lt;span style=&quot;white-space: pre;&quot;&gt;&#x9;&lt;/span&gt;search" style="rounded=0;whiteSpace=wrap;html=1;align=left;" vertex="1" parent="1">
          <mxGeometry x="270" y="359" width="240" height="20" as="geometry" />
        </mxCell>
        <mxCell id="-nKe98HKUG9GQoOS23Os-18" value="" style="html=1;verticalLabelPosition=bottom;align=center;labelBackgroundColor=#ffffff;verticalAlign=top;strokeWidth=2;strokeColor=#000000;shadow=0;dashed=0;shape=mxgraph.ios7.icons.looking_glass;" vertex="1" parent="1">
          <mxGeometry x="275" y="361.5" width="15" height="15" as="geometry" />
        </mxCell>
        <mxCell id="-nKe98HKUG9GQoOS23Os-19" value="" style="shape=image;verticalLabelPosition=bottom;labelBackgroundColor=default;verticalAlign=top;aspect=fixed;imageAspect=0;image=https://img.freepik.com/premium-vector/philadelphia-pennsylvania-usa-map-retro-style-vector-illustration-outline-map_119523-2483.jpg;clipPath=inset(4.91% 13% 4.91% 25.67%);labelBorderColor=default;textShadow=0;" vertex="1" parent="1">
          <mxGeometry x="260" y="390" width="318.46" height="270" as="geometry" />
        </mxCell>
        <mxCell id="-nKe98HKUG9GQoOS23Os-20" value="location" style="rounded=0;whiteSpace=wrap;html=1;fontSize=9;" vertex="1" parent="1">
          <mxGeometry x="520" y="359" width="50" height="20" as="geometry" />
        </mxCell>
        <mxCell id="-nKe98HKUG9GQoOS23Os-21" value="price" style="rounded=0;whiteSpace=wrap;html=1;fontSize=9;" vertex="1" parent="1">
          <mxGeometry x="580" y="359" width="50" height="20" as="geometry" />
        </mxCell>
        <mxCell id="-nKe98HKUG9GQoOS23Os-22" value="buy/rent" style="rounded=0;whiteSpace=wrap;html=1;fontSize=9;" vertex="1" parent="1">
          <mxGeometry x="640" y="359" width="50" height="20" as="geometry" />
        </mxCell>
        <mxCell id="-nKe98HKUG9GQoOS23Os-23" value="bed &amp;amp; bath" style="rounded=0;whiteSpace=wrap;html=1;fontSize=9;" vertex="1" parent="1">
          <mxGeometry x="700" y="359" width="50" height="20" as="geometry" />
        </mxCell>
        <mxCell id="-nKe98HKUG9GQoOS23Os-24" value="other" style="rounded=0;whiteSpace=wrap;html=1;fontSize=9;" vertex="1" parent="1">
          <mxGeometry x="760" y="359" width="50" height="20" as="geometry" />
        </mxCell>
        <mxCell id="-nKe98HKUG9GQoOS23Os-25" value="" style="verticalLabelPosition=bottom;shadow=0;dashed=0;align=center;html=1;verticalAlign=top;strokeWidth=1;shape=mxgraph.mockup.graphics.simpleIcon;strokeColor=#999999;" vertex="1" parent="1">
          <mxGeometry x="586" y="390" width="108" height="70" as="geometry" />
        </mxCell>
        <mxCell id="-nKe98HKUG9GQoOS23Os-26" value="" style="rounded=0;whiteSpace=wrap;html=1;fontColor=#000000;strokeColor=#999999;" vertex="1" parent="1">
          <mxGeometry x="586" y="440" width="108" height="20" as="geometry" />
        </mxCell>
        <mxCell id="-nKe98HKUG9GQoOS23Os-27" value="" style="verticalLabelPosition=bottom;shadow=0;dashed=0;align=center;html=1;verticalAlign=top;strokeWidth=1;shape=mxgraph.mockup.graphics.simpleIcon;strokeColor=#999999;" vertex="1" parent="1">
          <mxGeometry x="702" y="390" width="108" height="70" as="geometry" />
        </mxCell>
        <mxCell id="-nKe98HKUG9GQoOS23Os-28" value="" style="rounded=0;whiteSpace=wrap;html=1;fontColor=#000000;strokeColor=#999999;" vertex="1" parent="1">
          <mxGeometry x="702" y="440" width="108" height="20" as="geometry" />
        </mxCell>
        <mxCell id="-nKe98HKUG9GQoOS23Os-29" value="" style="verticalLabelPosition=bottom;shadow=0;dashed=0;align=center;html=1;verticalAlign=top;strokeWidth=1;shape=mxgraph.mockup.graphics.simpleIcon;strokeColor=#999999;" vertex="1" parent="1">
          <mxGeometry x="586" y="470" width="108" height="70" as="geometry" />
        </mxCell>
        <mxCell id="-nKe98HKUG9GQoOS23Os-30" value="" style="rounded=0;whiteSpace=wrap;html=1;fontColor=#000000;strokeColor=#999999;" vertex="1" parent="1">
          <mxGeometry x="586" y="520" width="108" height="20" as="geometry" />
        </mxCell>
        <mxCell id="-nKe98HKUG9GQoOS23Os-31" value="" style="verticalLabelPosition=bottom;shadow=0;dashed=0;align=center;html=1;verticalAlign=top;strokeWidth=1;shape=mxgraph.mockup.graphics.simpleIcon;strokeColor=#999999;" vertex="1" parent="1">
          <mxGeometry x="702" y="470" width="108" height="70" as="geometry" />
        </mxCell>
        <mxCell id="-nKe98HKUG9GQoOS23Os-32" value="" style="rounded=0;whiteSpace=wrap;html=1;fontColor=#000000;strokeColor=#999999;" vertex="1" parent="1">
          <mxGeometry x="702" y="520" width="108" height="20" as="geometry" />
        </mxCell>
        <mxCell id="-nKe98HKUG9GQoOS23Os-33" value="" style="verticalLabelPosition=bottom;shadow=0;dashed=0;align=center;html=1;verticalAlign=top;strokeWidth=1;shape=mxgraph.mockup.graphics.simpleIcon;strokeColor=#999999;" vertex="1" parent="1">
          <mxGeometry x="586" y="550" width="108" height="70" as="geometry" />
        </mxCell>
        <mxCell id="-nKe98HKUG9GQoOS23Os-34" value="" style="rounded=0;whiteSpace=wrap;html=1;fontColor=#000000;strokeColor=#999999;" vertex="1" parent="1">
          <mxGeometry x="586" y="600" width="108" height="20" as="geometry" />
        </mxCell>
        <mxCell id="-nKe98HKUG9GQoOS23Os-35" value="" style="verticalLabelPosition=bottom;shadow=0;dashed=0;align=center;html=1;verticalAlign=top;strokeWidth=1;shape=mxgraph.mockup.graphics.simpleIcon;strokeColor=#999999;" vertex="1" parent="1">
          <mxGeometry x="702" y="550" width="108" height="70" as="geometry" />
        </mxCell>
        <mxCell id="-nKe98HKUG9GQoOS23Os-36" value="" style="rounded=0;whiteSpace=wrap;html=1;fontColor=#000000;strokeColor=#999999;" vertex="1" parent="1">
          <mxGeometry x="702" y="600" width="108" height="20" as="geometry" />
        </mxCell>
        <mxCell id="-nKe98HKUG9GQoOS23Os-37" value="" style="rounded=0;whiteSpace=wrap;html=1;fontColor=#000000;strokeColor=#999999;" vertex="1" parent="1">
          <mxGeometry x="586" y="690" width="108" height="20" as="geometry" />
        </mxCell>
        <mxCell id="-nKe98HKUG9GQoOS23Os-38" value="" style="verticalLabelPosition=bottom;shadow=0;dashed=0;align=center;html=1;verticalAlign=top;strokeWidth=1;shape=mxgraph.mockup.graphics.simpleIcon;strokeColor=#999999;" vertex="1" parent="1">
          <mxGeometry x="586" y="640" width="108" height="70" as="geometry" />
        </mxCell>
        <mxCell id="-nKe98HKUG9GQoOS23Os-39" value="" style="verticalLabelPosition=bottom;shadow=0;dashed=0;align=center;html=1;verticalAlign=top;strokeWidth=1;shape=mxgraph.mockup.graphics.simpleIcon;strokeColor=#999999;" vertex="1" parent="1">
          <mxGeometry x="702" y="640" width="108" height="70" as="geometry" />
        </mxCell>
        <mxCell id="-nKe98HKUG9GQoOS23Os-40" value="" style="rounded=0;whiteSpace=wrap;html=1;strokeColor=none;fillColor=default;" vertex="1" parent="1">
          <mxGeometry x="260" y="660" width="560" height="61" as="geometry" />
        </mxCell>
        <mxCell id="-nKe98HKUG9GQoOS23Os-41" value="" style="line;strokeWidth=2;direction=south;html=1;" vertex="1" parent="1">
          <mxGeometry x="255" y="310" width="10" height="350" as="geometry" />
        </mxCell>
        <mxCell id="-nKe98HKUG9GQoOS23Os-42" value="" style="line;strokeWidth=2;direction=south;html=1;" vertex="1" parent="1">
          <mxGeometry x="814" y="310" width="10" height="350" as="geometry" />
        </mxCell>
        <mxCell id="-nKe98HKUG9GQoOS23Os-43" value="" style="line;strokeWidth=2;html=1;" vertex="1" parent="1">
          <mxGeometry x="260" y="654" width="560" height="10" as="geometry" />
        </mxCell>
        <mxCell id="-nKe98HKUG9GQoOS23Os-44" value="" style="line;strokeWidth=2;html=1;" vertex="1" parent="1">
          <mxGeometry x="260" y="305" width="560" height="10" as="geometry" />
        </mxCell>
        <mxCell id="hWrHDZZLxJYOmOzfv-9d-1" value="" style="endArrow=none;html=1;rounded=0;fontColor=#B3B3B3;strokeColor=#999999;" edge="1" parent="1">
          <mxGeometry width="50" height="50" relative="1" as="geometry">
            <mxPoint x="265" y="320.5" as="sourcePoint" />
            <mxPoint x="268" y="316.5" as="targetPoint" />
          </mxGeometry>
        </mxCell>
        <mxCell id="hWrHDZZLxJYOmOzfv-9d-2" value="" style="endArrow=none;html=1;rounded=0;fontColor=#B3B3B3;strokeColor=#999999;" edge="1" parent="1">
          <mxGeometry width="50" height="50" relative="1" as="geometry">
            <mxPoint x="265" y="320.5" as="sourcePoint" />
            <mxPoint x="272" y="320.5" as="targetPoint" />
          </mxGeometry>
        </mxCell>
        <mxCell id="hWrHDZZLxJYOmOzfv-9d-3" value="" style="endArrow=none;html=1;rounded=0;fontColor=#B3B3B3;strokeColor=#999999;strokeWidth=1;" edge="1" parent="1">
          <mxGeometry width="50" height="50" relative="1" as="geometry">
            <mxPoint x="265" y="320.5" as="sourcePoint" />
            <mxPoint x="268" y="324.5" as="targetPoint" />
          </mxGeometry>
        </mxCell>
        <mxCell id="hWrHDZZLxJYOmOzfv-9d-4" value="" style="endArrow=none;html=1;rounded=0;fontColor=#B3B3B3;strokeColor=#999999;" edge="1" parent="1">
          <mxGeometry width="50" height="50" relative="1" as="geometry">
            <mxPoint x="286" y="320.5" as="sourcePoint" />
            <mxPoint x="282" y="316.5" as="targetPoint" />
          </mxGeometry>
        </mxCell>
        <mxCell id="hWrHDZZLxJYOmOzfv-9d-5" value="" style="endArrow=none;html=1;rounded=0;fontColor=#B3B3B3;strokeColor=#999999;" edge="1" parent="1">
          <mxGeometry width="50" height="50" relative="1" as="geometry">
            <mxPoint x="286" y="320.5" as="sourcePoint" />
            <mxPoint x="279" y="320.5" as="targetPoint" />
          </mxGeometry>
        </mxCell>
        <mxCell id="hWrHDZZLxJYOmOzfv-9d-6" value="" style="endArrow=none;html=1;rounded=0;fontColor=#B3B3B3;strokeColor=#999999;strokeWidth=1;" edge="1" parent="1">
          <mxGeometry width="50" height="50" relative="1" as="geometry">
            <mxPoint x="286" y="320.5" as="sourcePoint" />
            <mxPoint x="282" y="324.5" as="targetPoint" />
          </mxGeometry>
        </mxCell>
        <mxCell id="hWrHDZZLxJYOmOzfv-9d-7" value="" style="html=1;verticalLabelPosition=bottom;align=center;labelBackgroundColor=#ffffff;verticalAlign=top;strokeWidth=1;strokeColor=#999999;shadow=0;dashed=0;shape=mxgraph.ios7.icons.reload;direction=south;" vertex="1" parent="1">
          <mxGeometry x="297" y="316.5" width="8" height="8" as="geometry" />
        </mxCell>
        <mxCell id="hWrHDZZLxJYOmOzfv-9d-8" value="" style="html=1;verticalLabelPosition=bottom;align=center;labelBackgroundColor=#ffffff;verticalAlign=top;strokeWidth=1;strokeColor=#999999;shadow=0;dashed=0;shape=mxgraph.ios7.icons.home;" vertex="1" parent="1">
          <mxGeometry x="317" y="315.5" width="9" height="9" as="geometry" />
        </mxCell>
        <mxCell id="vzfaMuveK176Gt93CCUJ-1" value="1. This tab should display rent since the user clicked on the rent button on the homepage" style="text;html=1;align=left;verticalAlign=middle;whiteSpace=wrap;rounded=0;fontColor=#0066CC;" vertex="1" parent="1">
          <mxGeometry x="20" y="310" width="210" height="60" as="geometry" />
        </mxCell>
        <mxCell id="vzfaMuveK176Gt93CCUJ-2" value="2. This is a rental listing that the user can choose from" style="text;html=1;align=left;verticalAlign=middle;whiteSpace=wrap;rounded=0;fontColor=#0066CC;" vertex="1" parent="1">
          <mxGeometry x="20" y="370" width="210" height="60" as="geometry" />
        </mxCell>
        <mxCell id="vzfaMuveK176Gt93CCUJ-3" value="" style="verticalLabelPosition=bottom;verticalAlign=top;html=1;shape=mxgraph.basic.drop;strokeColor=#377df7;direction=east;fontColor=#007FFF;" vertex="1" parent="1">
          <mxGeometry x="627" y="460" width="16" height="26" as="geometry" />
        </mxCell>
        <mxCell id="vzfaMuveK176Gt93CCUJ-4" value="2" style="text;html=1;align=center;verticalAlign=middle;resizable=0;points=[];autosize=1;strokeColor=none;fillColor=none;fontColor=#007FFF;" vertex="1" parent="1">
          <mxGeometry x="620" y="460" width="30" height="30" as="geometry" />
        </mxCell>
        <mxCell id="vzfaMuveK176Gt93CCUJ-5" value="" style="verticalLabelPosition=bottom;verticalAlign=top;html=1;shape=mxgraph.basic.drop;strokeColor=#377df7;direction=east;fontColor=#007FFF;" vertex="1" parent="1">
          <mxGeometry x="620" y="620" width="16" height="26" as="geometry" />
        </mxCell>
        <mxCell id="vzfaMuveK176Gt93CCUJ-6" value="3" style="text;html=1;align=center;verticalAlign=middle;resizable=0;points=[];autosize=1;strokeColor=none;fillColor=none;fontColor=#007FFF;" vertex="1" parent="1">
          <mxGeometry x="613" y="620" width="30" height="30" as="geometry" />
        </mxCell>
        <mxCell id="vzfaMuveK176Gt93CCUJ-7" value="3. Clicking on a listing takes the user to a separate page solely about that listing" style="text;html=1;align=left;verticalAlign=middle;whiteSpace=wrap;rounded=0;fontColor=#0066CC;" vertex="1" parent="1">
          <mxGeometry x="20" y="430" width="210" height="60" as="geometry" />
        </mxCell>
        <mxCell id="vzfaMuveK176Gt93CCUJ-8" value="" style="verticalLabelPosition=bottom;verticalAlign=top;html=1;shape=mxgraph.basic.drop;strokeColor=#377df7;direction=east;fontColor=#007FFF;" vertex="1" parent="1">
          <mxGeometry x="780" y="376.5" width="16" height="26" as="geometry" />
        </mxCell>
        <mxCell id="vzfaMuveK176Gt93CCUJ-9" value="4" style="text;html=1;align=center;verticalAlign=middle;resizable=0;points=[];autosize=1;strokeColor=none;fillColor=none;fontColor=#007FFF;" vertex="1" parent="1">
          <mxGeometry x="773" y="376.5" width="30" height="30" as="geometry" />
        </mxCell>
        <mxCell id="vzfaMuveK176Gt93CCUJ-10" value="4. The user can further refine the results by entering other criteria into the filters" style="text;html=1;align=left;verticalAlign=middle;whiteSpace=wrap;rounded=0;fontColor=#0066CC;" vertex="1" parent="1">
          <mxGeometry x="20" y="490" width="210" height="60" as="geometry" />
        </mxCell>
        <mxCell id="dMrNdV_jKrS0mpZ_SGEA-1" value="messages" style="rounded=0;whiteSpace=wrap;html=1;fontSize=9;" vertex="1" parent="1">
          <mxGeometry x="650" y="335" width="53" height="10" as="geometry" />
        </mxCell>
        <mxCell id="7Tgj7m8BGKXGbWkoXuub-3" value="" style="verticalLabelPosition=bottom;verticalAlign=top;html=1;shape=mxgraph.basic.drop;strokeColor=#377df7;direction=west;fontColor=#007FFF;" vertex="1" parent="1">
          <mxGeometry x="637" y="332" width="16" height="26" as="geometry" />
        </mxCell>
        <mxCell id="7Tgj7m8BGKXGbWkoXuub-4" value="1" style="text;html=1;align=center;verticalAlign=middle;resizable=0;points=[];autosize=1;strokeColor=none;fillColor=none;fontColor=#007FFF;" vertex="1" parent="1">
          <mxGeometry x="630" y="329" width="30" height="30" as="geometry" />
        </mxCell>
      </root>
    </mxGraphModel>
  </diagram>
  <diagram id="6jYhgyEf6lztRXTWcx_8" name="Individual Listing">
    <mxGraphModel dx="1195" dy="703" grid="1" gridSize="10" guides="1" tooltips="1" connect="1" arrows="1" fold="1" page="1" pageScale="1" pageWidth="850" pageHeight="1100" math="0" shadow="0">
      <root>
        <mxCell id="0" />
        <mxCell id="1" parent="0" />
        <mxCell id="zMwLx7f_SdfdKlqF40mD-1" value="" style="rounded=0;whiteSpace=wrap;html=1;fontColor=#007FFF;strokeColor=#007FFF;" vertex="1" parent="1">
          <mxGeometry x="20" y="265" width="210" height="695" as="geometry" />
        </mxCell>
        <mxCell id="zMwLx7f_SdfdKlqF40mD-2" value="Annotations" style="rounded=0;whiteSpace=wrap;html=1;fontColor=#007FFF;strokeColor=#007FFF;fontSize=15;" vertex="1" parent="1">
          <mxGeometry x="20" y="265" width="210" height="45" as="geometry" />
        </mxCell>
        <mxCell id="ltXApqwGF8x-7NpE5l84-1" value="" style="rounded=0;whiteSpace=wrap;html=1;" vertex="1" parent="1">
          <mxGeometry x="260" y="310" width="560" height="350" as="geometry" />
        </mxCell>
        <mxCell id="ltXApqwGF8x-7NpE5l84-2" value="" style="rounded=0;whiteSpace=wrap;html=1;" vertex="1" parent="1">
          <mxGeometry x="260" y="310" width="560" height="20" as="geometry" />
        </mxCell>
        <mxCell id="ltXApqwGF8x-7NpE5l84-3" value="" style="rounded=1;whiteSpace=wrap;html=1;" vertex="1" parent="1">
          <mxGeometry x="340" y="315" width="430" height="10" as="geometry" />
        </mxCell>
        <mxCell id="ltXApqwGF8x-7NpE5l84-4" value="&lt;font style=&quot;font-size: 6px;&quot;&gt;https:unemployedexperiencedesign.com&lt;/font&gt;" style="text;html=1;align=center;verticalAlign=middle;whiteSpace=wrap;rounded=0;" vertex="1" parent="1">
          <mxGeometry x="300" y="313" width="210" height="10" as="geometry" />
        </mxCell>
        <mxCell id="ltXApqwGF8x-7NpE5l84-5" value="rent" style="rounded=0;whiteSpace=wrap;html=1;fontSize=9;" vertex="1" parent="1">
          <mxGeometry x="272" y="335" width="33" height="10" as="geometry" />
        </mxCell>
        <mxCell id="ltXApqwGF8x-7NpE5l84-6" value="buy" style="rounded=0;whiteSpace=wrap;html=1;fontSize=9;" vertex="1" parent="1">
          <mxGeometry x="312" y="335" width="33" height="10" as="geometry" />
        </mxCell>
        <mxCell id="ltXApqwGF8x-7NpE5l84-7" value="browse" style="rounded=0;whiteSpace=wrap;html=1;fontSize=9;" vertex="1" parent="1">
          <mxGeometry x="352" y="335" width="33" height="10" as="geometry" />
        </mxCell>
        <mxCell id="ltXApqwGF8x-7NpE5l84-8" value="saved" style="rounded=0;whiteSpace=wrap;html=1;fontSize=9;" vertex="1" parent="1">
          <mxGeometry x="750" y="335" width="33" height="10" as="geometry" />
        </mxCell>
        <mxCell id="ltXApqwGF8x-7NpE5l84-9" value="" style="ellipse;whiteSpace=wrap;html=1;aspect=fixed;" vertex="1" parent="1">
          <mxGeometry x="790" y="332" width="16" height="16" as="geometry" />
        </mxCell>
        <mxCell id="ltXApqwGF8x-7NpE5l84-10" value="" style="endArrow=none;html=1;rounded=0;exitX=0.003;exitY=0.162;exitDx=0;exitDy=0;exitPerimeter=0;arcSize=0;" edge="1" parent="1">
          <mxGeometry width="50" height="50" relative="1" as="geometry">
            <mxPoint x="259.99999999999994" y="350.00000000000006" as="sourcePoint" />
            <mxPoint x="820" y="351" as="targetPoint" />
          </mxGeometry>
        </mxCell>
        <mxCell id="ltXApqwGF8x-7NpE5l84-11" value="help" style="rounded=0;whiteSpace=wrap;html=1;fontSize=9;" vertex="1" parent="1">
          <mxGeometry x="710" y="335" width="33" height="10" as="geometry" />
        </mxCell>
        <mxCell id="ltXApqwGF8x-7NpE5l84-12" value="" style="rounded=0;whiteSpace=wrap;html=1;" vertex="1" parent="1">
          <mxGeometry x="490" y="330" width="120" height="20" as="geometry" />
        </mxCell>
        <mxCell id="ltXApqwGF8x-7NpE5l84-13" value="" style="endArrow=none;html=1;rounded=0;exitX=0;exitY=1;exitDx=0;exitDy=0;entryX=1;entryY=0;entryDx=0;entryDy=0;" edge="1" parent="1" source="ltXApqwGF8x-7NpE5l84-12" target="ltXApqwGF8x-7NpE5l84-12">
          <mxGeometry width="50" height="50" relative="1" as="geometry">
            <mxPoint x="460" y="410" as="sourcePoint" />
            <mxPoint x="510" y="360" as="targetPoint" />
          </mxGeometry>
        </mxCell>
        <mxCell id="ltXApqwGF8x-7NpE5l84-14" value="" style="endArrow=none;html=1;rounded=0;exitX=0;exitY=0;exitDx=0;exitDy=0;entryX=1;entryY=1;entryDx=0;entryDy=0;" edge="1" parent="1" source="ltXApqwGF8x-7NpE5l84-12" target="ltXApqwGF8x-7NpE5l84-12">
          <mxGeometry width="50" height="50" relative="1" as="geometry">
            <mxPoint x="500" y="360" as="sourcePoint" />
            <mxPoint x="620" y="340" as="targetPoint" />
          </mxGeometry>
        </mxCell>
        <mxCell id="ltXApqwGF8x-7NpE5l84-15" value="&lt;font style=&quot;font-size: 9px;&quot;&gt;about us&lt;/font&gt;" style="rounded=0;whiteSpace=wrap;html=1;fontSize=9;" vertex="1" parent="1">
          <mxGeometry x="392" y="335" width="38" height="10" as="geometry" />
        </mxCell>
        <mxCell id="ltXApqwGF8x-7NpE5l84-16" value="" style="sketch=0;pointerEvents=1;shadow=0;dashed=0;html=1;strokeColor=none;labelPosition=center;verticalLabelPosition=bottom;verticalAlign=top;align=center;fillColor=#505050;shape=mxgraph.mscae.intune.account_portal" vertex="1" parent="1">
          <mxGeometry x="793" y="335" width="10" height="10" as="geometry" />
        </mxCell>
        <mxCell id="ltXApqwGF8x-7NpE5l84-33" value="" style="verticalLabelPosition=bottom;shadow=0;dashed=0;align=center;html=1;verticalAlign=top;strokeWidth=1;shape=mxgraph.mockup.graphics.simpleIcon;strokeColor=#999999;" vertex="1" parent="1">
          <mxGeometry x="272" y="367.5" width="348" height="272.5" as="geometry" />
        </mxCell>
        <mxCell id="ltXApqwGF8x-7NpE5l84-41" value="" style="line;strokeWidth=2;direction=south;html=1;" vertex="1" parent="1">
          <mxGeometry x="255" y="310" width="10" height="350" as="geometry" />
        </mxCell>
        <mxCell id="ltXApqwGF8x-7NpE5l84-42" value="" style="line;strokeWidth=2;direction=south;html=1;" vertex="1" parent="1">
          <mxGeometry x="814" y="310" width="10" height="350" as="geometry" />
        </mxCell>
        <mxCell id="ltXApqwGF8x-7NpE5l84-43" value="" style="line;strokeWidth=2;html=1;" vertex="1" parent="1">
          <mxGeometry x="260" y="654" width="560" height="10" as="geometry" />
        </mxCell>
        <mxCell id="ltXApqwGF8x-7NpE5l84-44" value="" style="line;strokeWidth=2;html=1;" vertex="1" parent="1">
          <mxGeometry x="260" y="305" width="560" height="10" as="geometry" />
        </mxCell>
        <mxCell id="ltXApqwGF8x-7NpE5l84-45" value="" style="endArrow=none;html=1;rounded=0;fontColor=#B3B3B3;strokeColor=#999999;" edge="1" parent="1">
          <mxGeometry width="50" height="50" relative="1" as="geometry">
            <mxPoint x="265" y="320.5" as="sourcePoint" />
            <mxPoint x="268" y="316.5" as="targetPoint" />
          </mxGeometry>
        </mxCell>
        <mxCell id="ltXApqwGF8x-7NpE5l84-46" value="" style="endArrow=none;html=1;rounded=0;fontColor=#B3B3B3;strokeColor=#999999;" edge="1" parent="1">
          <mxGeometry width="50" height="50" relative="1" as="geometry">
            <mxPoint x="265" y="320.5" as="sourcePoint" />
            <mxPoint x="272" y="320.5" as="targetPoint" />
          </mxGeometry>
        </mxCell>
        <mxCell id="ltXApqwGF8x-7NpE5l84-47" value="" style="endArrow=none;html=1;rounded=0;fontColor=#B3B3B3;strokeColor=#999999;strokeWidth=1;" edge="1" parent="1">
          <mxGeometry width="50" height="50" relative="1" as="geometry">
            <mxPoint x="265" y="320.5" as="sourcePoint" />
            <mxPoint x="268" y="324.5" as="targetPoint" />
          </mxGeometry>
        </mxCell>
        <mxCell id="ltXApqwGF8x-7NpE5l84-48" value="" style="endArrow=none;html=1;rounded=0;fontColor=#B3B3B3;strokeColor=#999999;" edge="1" parent="1">
          <mxGeometry width="50" height="50" relative="1" as="geometry">
            <mxPoint x="286" y="320.5" as="sourcePoint" />
            <mxPoint x="282" y="316.5" as="targetPoint" />
          </mxGeometry>
        </mxCell>
        <mxCell id="ltXApqwGF8x-7NpE5l84-49" value="" style="endArrow=none;html=1;rounded=0;fontColor=#B3B3B3;strokeColor=#999999;" edge="1" parent="1">
          <mxGeometry width="50" height="50" relative="1" as="geometry">
            <mxPoint x="286" y="320.5" as="sourcePoint" />
            <mxPoint x="279" y="320.5" as="targetPoint" />
          </mxGeometry>
        </mxCell>
        <mxCell id="ltXApqwGF8x-7NpE5l84-50" value="" style="endArrow=none;html=1;rounded=0;fontColor=#B3B3B3;strokeColor=#999999;strokeWidth=1;" edge="1" parent="1">
          <mxGeometry width="50" height="50" relative="1" as="geometry">
            <mxPoint x="286" y="320.5" as="sourcePoint" />
            <mxPoint x="282" y="324.5" as="targetPoint" />
          </mxGeometry>
        </mxCell>
        <mxCell id="ltXApqwGF8x-7NpE5l84-51" value="" style="html=1;verticalLabelPosition=bottom;align=center;labelBackgroundColor=#ffffff;verticalAlign=top;strokeWidth=1;strokeColor=#999999;shadow=0;dashed=0;shape=mxgraph.ios7.icons.reload;direction=south;" vertex="1" parent="1">
          <mxGeometry x="297" y="316.5" width="8" height="8" as="geometry" />
        </mxCell>
        <mxCell id="ltXApqwGF8x-7NpE5l84-52" value="" style="html=1;verticalLabelPosition=bottom;align=center;labelBackgroundColor=#ffffff;verticalAlign=top;strokeWidth=1;strokeColor=#999999;shadow=0;dashed=0;shape=mxgraph.ios7.icons.home;" vertex="1" parent="1">
          <mxGeometry x="317" y="315.5" width="9" height="9" as="geometry" />
        </mxCell>
        <mxCell id="ltXApqwGF8x-7NpE5l84-64" value="" style="shape=image;verticalLabelPosition=bottom;labelBackgroundColor=default;verticalAlign=top;aspect=fixed;imageAspect=0;image=https://icons.veryicon.com/png/o/miscellaneous/common-icons-of-web-system/caret-down-20.png;direction=south;" vertex="1" parent="1">
          <mxGeometry x="274.5" y="483.5" width="28" height="28" as="geometry" />
        </mxCell>
        <mxCell id="ltXApqwGF8x-7NpE5l84-67" value="" style="triangle;whiteSpace=wrap;html=1;direction=west;strokeColor=none;" vertex="1" parent="1">
          <mxGeometry x="285" y="482.5" width="15" height="30" as="geometry" />
        </mxCell>
        <mxCell id="ltXApqwGF8x-7NpE5l84-68" value="" style="shape=image;verticalLabelPosition=bottom;labelBackgroundColor=default;verticalAlign=top;aspect=fixed;imageAspect=0;image=https://icons.veryicon.com/png/o/miscellaneous/common-icons-of-web-system/caret-down-20.png;direction=north;" vertex="1" parent="1">
          <mxGeometry x="591" y="483.5" width="28" height="28" as="geometry" />
        </mxCell>
        <mxCell id="ltXApqwGF8x-7NpE5l84-69" value="" style="triangle;whiteSpace=wrap;html=1;direction=east;strokeColor=none;" vertex="1" parent="1">
          <mxGeometry x="593" y="482.5" width="15" height="30" as="geometry" />
        </mxCell>
        <mxCell id="NEkmXqRxL-QRmttah7hr-1" value="" style="verticalLabelPosition=bottom;verticalAlign=top;html=1;shape=mxgraph.basic.drop;strokeColor=#377df7;direction=west;fontColor=#007FFF;" vertex="1" parent="1">
          <mxGeometry x="707" y="413" width="16" height="26" as="geometry" />
        </mxCell>
        <mxCell id="NEkmXqRxL-QRmttah7hr-2" value="4" style="text;html=1;align=center;verticalAlign=middle;resizable=0;points=[];autosize=1;strokeColor=none;fillColor=none;fontColor=#007FFF;" vertex="1" parent="1">
          <mxGeometry x="700" y="409" width="30" height="30" as="geometry" />
        </mxCell>
        <mxCell id="ltXApqwGF8x-7NpE5l84-70" value="" style="verticalLabelPosition=bottom;verticalAlign=top;html=1;shape=mxgraph.basic.drop;strokeColor=#377df7;direction=east;fontColor=#007FFF;" vertex="1" parent="1">
          <mxGeometry x="317" y="640" width="16" height="26" as="geometry" />
        </mxCell>
        <mxCell id="ltXApqwGF8x-7NpE5l84-71" value="2" style="text;html=1;align=center;verticalAlign=middle;resizable=0;points=[];autosize=1;strokeColor=none;fillColor=none;fontColor=#007FFF;" vertex="1" parent="1">
          <mxGeometry x="310" y="640" width="30" height="30" as="geometry" />
        </mxCell>
        <mxCell id="ltXApqwGF8x-7NpE5l84-72" value="" style="verticalLabelPosition=bottom;verticalAlign=top;html=1;shape=mxgraph.basic.drop;strokeColor=#377df7;direction=east;fontColor=#007FFF;" vertex="1" parent="1">
          <mxGeometry x="279.5" y="510" width="16" height="26" as="geometry" />
        </mxCell>
        <mxCell id="ltXApqwGF8x-7NpE5l84-73" value="1" style="text;html=1;align=center;verticalAlign=middle;resizable=0;points=[];autosize=1;strokeColor=none;fillColor=none;fontColor=#007FFF;" vertex="1" parent="1">
          <mxGeometry x="272.5" y="512.5" width="30" height="30" as="geometry" />
        </mxCell>
        <mxCell id="ltXApqwGF8x-7NpE5l84-74" value="&lt;span style=&quot;font-family: &amp;quot;Open Sans&amp;quot;, Arial, sans-serif; background-color: rgb(255, 255, 255); font-size: 15px;&quot;&gt;&lt;font style=&quot;font-size: 15px;&quot;&gt;&lt;b style=&quot;font-size: 15px;&quot;&gt;Lorem ipsum dolor sit amet&lt;/b&gt;&lt;/font&gt;&lt;/span&gt;" style="text;html=1;align=left;verticalAlign=middle;whiteSpace=wrap;rounded=0;fontSize=15;" vertex="1" parent="1">
          <mxGeometry x="644.5" y="360" width="150" height="43.5" as="geometry" />
        </mxCell>
        <mxCell id="ltXApqwGF8x-7NpE5l84-75" value="$xxx,xxx" style="text;html=1;align=left;verticalAlign=middle;whiteSpace=wrap;rounded=0;fontStyle=1;fontSize=13;fontColor=#999999;" vertex="1" parent="1">
          <mxGeometry x="644.5" y="393" width="60" height="30" as="geometry" />
        </mxCell>
        <mxCell id="ltXApqwGF8x-7NpE5l84-76" value="listed xxx" style="text;html=1;align=left;verticalAlign=middle;whiteSpace=wrap;rounded=0;fontSize=11;fontColor=#999999;" vertex="1" parent="1">
          <mxGeometry x="644.5" y="410" width="60" height="30" as="geometry" />
        </mxCell>
        <mxCell id="ltXApqwGF8x-7NpE5l84-77" value="" style="verticalLabelPosition=bottom;verticalAlign=top;html=1;shape=mxgraph.basic.drop;strokeColor=#377df7;direction=south;fontColor=#007FFF;" vertex="1" parent="1">
          <mxGeometry x="619" y="397" width="26" height="16" as="geometry" />
        </mxCell>
        <mxCell id="ltXApqwGF8x-7NpE5l84-78" value="3" style="text;html=1;align=center;verticalAlign=middle;resizable=0;points=[];autosize=1;strokeColor=none;fillColor=none;fontColor=#007FFF;" vertex="1" parent="1">
          <mxGeometry x="610" y="390" width="30" height="30" as="geometry" />
        </mxCell>
        <mxCell id="ltXApqwGF8x-7NpE5l84-79" value="1. Allows the user to swipe/click through images of the listing" style="text;html=1;align=left;verticalAlign=middle;whiteSpace=wrap;rounded=0;fontColor=#0066CC;" vertex="1" parent="1">
          <mxGeometry x="20" y="310" width="210" height="50" as="geometry" />
        </mxCell>
        <mxCell id="ltXApqwGF8x-7NpE5l84-80" value="2. This image solely contains pictures of the listing uploaded by the seller. Made large to create a visual hierarchy and bring in the user&#39;s attention." style="text;html=1;align=left;verticalAlign=middle;whiteSpace=wrap;rounded=0;fontColor=#0066CC;" vertex="1" parent="1">
          <mxGeometry x="20" y="380" width="210" height="73.25" as="geometry" />
        </mxCell>
        <mxCell id="ltXApqwGF8x-7NpE5l84-81" value="3. Header created by the lister in bold, price in bold but grey, listing date grey and not bolded. Creates a visual hierarchy based on what information the user would find important" style="text;html=1;align=left;verticalAlign=middle;whiteSpace=wrap;rounded=0;fontColor=#0066CC;" vertex="1" parent="1">
          <mxGeometry x="20" y="463" width="210" height="87" as="geometry" />
        </mxCell>
        <mxCell id="ltXApqwGF8x-7NpE5l84-82" value="Lorem ipsum" style="text;html=1;align=left;verticalAlign=middle;whiteSpace=wrap;rounded=0;fontSize=8;fontStyle=0" vertex="1" parent="1">
          <mxGeometry x="625" y="470" width="60" height="20" as="geometry" />
        </mxCell>
        <mxCell id="ltXApqwGF8x-7NpE5l84-91" value="&lt;font style=&quot;font-size: 10px;&quot; color=&quot;#ffffff&quot;&gt;contact&lt;/font&gt;" style="rounded=1;whiteSpace=wrap;html=1;strokeColor=none;fillColor=#999999;" vertex="1" parent="1">
          <mxGeometry x="630" y="440" width="50" height="20" as="geometry" />
        </mxCell>
        <mxCell id="ltXApqwGF8x-7NpE5l84-100" value="&lt;font style=&quot;font-size: 10px;&quot; color=&quot;#ffffff&quot;&gt;add&lt;/font&gt;" style="rounded=1;whiteSpace=wrap;html=1;strokeColor=none;fillColor=#999999;" vertex="1" parent="1">
          <mxGeometry x="690" y="440" width="50" height="20" as="geometry" />
        </mxCell>
        <mxCell id="ltXApqwGF8x-7NpE5l84-101" value="&lt;font style=&quot;font-size: 10px;&quot; color=&quot;#ffffff&quot;&gt;share&lt;/font&gt;" style="rounded=1;whiteSpace=wrap;html=1;strokeColor=none;fillColor=#999999;" vertex="1" parent="1">
          <mxGeometry x="750" y="440" width="50" height="20" as="geometry" />
        </mxCell>
        <mxCell id="ltXApqwGF8x-7NpE5l84-102" value="Lorem ipsum" style="text;html=1;align=left;verticalAlign=middle;whiteSpace=wrap;rounded=0;fontSize=8;fontStyle=0" vertex="1" parent="1">
          <mxGeometry x="690" y="470" width="60" height="20" as="geometry" />
        </mxCell>
        <mxCell id="ltXApqwGF8x-7NpE5l84-103" value="Lorem ipsum" style="text;html=1;align=left;verticalAlign=middle;whiteSpace=wrap;rounded=0;fontSize=8;fontStyle=0" vertex="1" parent="1">
          <mxGeometry x="754" y="470" width="60" height="20" as="geometry" />
        </mxCell>
        <mxCell id="ltXApqwGF8x-7NpE5l84-104" value="Lorem ipsum" style="text;html=1;align=left;verticalAlign=middle;whiteSpace=wrap;rounded=0;fontSize=8;fontStyle=0" vertex="1" parent="1">
          <mxGeometry x="625" y="490" width="60" height="20" as="geometry" />
        </mxCell>
        <mxCell id="ltXApqwGF8x-7NpE5l84-105" value="Lorem ipsum" style="text;html=1;align=left;verticalAlign=middle;whiteSpace=wrap;rounded=0;fontSize=8;fontStyle=0" vertex="1" parent="1">
          <mxGeometry x="689.5" y="488.75" width="60" height="20" as="geometry" />
        </mxCell>
        <mxCell id="ltXApqwGF8x-7NpE5l84-108" value="4. User has the option to contact/add/share the listing. Contacting the listing will place the user in a chat with the lister. Add will add the listing to the user&#39;s &quot;cart&quot;. Share will copy the link of the listing to the user&#39;s clipboard." style="text;html=1;align=left;verticalAlign=middle;whiteSpace=wrap;rounded=0;fontColor=#0066CC;" vertex="1" parent="1">
          <mxGeometry x="20" y="571.25" width="210" height="107.5" as="geometry" />
        </mxCell>
        <mxCell id="ltXApqwGF8x-7NpE5l84-109" value="" style="verticalLabelPosition=bottom;shadow=0;dashed=0;align=center;html=1;verticalAlign=top;strokeWidth=1;shape=mxgraph.mockup.graphics.simpleIcon;strokeColor=#999999;" vertex="1" parent="1">
          <mxGeometry x="677" y="476.25" width="8" height="7.5" as="geometry" />
        </mxCell>
        <mxCell id="ltXApqwGF8x-7NpE5l84-110" value="" style="verticalLabelPosition=bottom;shadow=0;dashed=0;align=center;html=1;verticalAlign=top;strokeWidth=1;shape=mxgraph.mockup.graphics.simpleIcon;strokeColor=#999999;" vertex="1" parent="1">
          <mxGeometry x="743" y="476.25" width="8" height="7.5" as="geometry" />
        </mxCell>
        <mxCell id="ltXApqwGF8x-7NpE5l84-111" value="" style="verticalLabelPosition=bottom;shadow=0;dashed=0;align=center;html=1;verticalAlign=top;strokeWidth=1;shape=mxgraph.mockup.graphics.simpleIcon;strokeColor=#999999;" vertex="1" parent="1">
          <mxGeometry x="806" y="476.25" width="8" height="7.5" as="geometry" />
        </mxCell>
        <mxCell id="ltXApqwGF8x-7NpE5l84-112" value="" style="verticalLabelPosition=bottom;shadow=0;dashed=0;align=center;html=1;verticalAlign=top;strokeWidth=1;shape=mxgraph.mockup.graphics.simpleIcon;strokeColor=#999999;" vertex="1" parent="1">
          <mxGeometry x="677" y="496.25" width="8" height="7.5" as="geometry" />
        </mxCell>
        <mxCell id="ltXApqwGF8x-7NpE5l84-115" value="" style="verticalLabelPosition=bottom;shadow=0;dashed=0;align=center;html=1;verticalAlign=top;strokeWidth=1;shape=mxgraph.mockup.graphics.simpleIcon;strokeColor=#999999;" vertex="1" parent="1">
          <mxGeometry x="743" y="496.25" width="8" height="7.5" as="geometry" />
        </mxCell>
        <mxCell id="ltXApqwGF8x-7NpE5l84-118" value="" style="verticalLabelPosition=bottom;verticalAlign=top;html=1;shape=mxgraph.basic.drop;strokeColor=#377df7;direction=north;fontColor=#007FFF;" vertex="1" parent="1">
          <mxGeometry x="756.5" y="490" width="26" height="16" as="geometry" />
        </mxCell>
        <mxCell id="ltXApqwGF8x-7NpE5l84-119" value="5" style="text;html=1;align=center;verticalAlign=middle;resizable=0;points=[];autosize=1;strokeColor=none;fillColor=none;fontColor=#007FFF;" vertex="1" parent="1">
          <mxGeometry x="756.5" y="483.75" width="30" height="30" as="geometry" />
        </mxCell>
        <mxCell id="ltXApqwGF8x-7NpE5l84-120" value="5. Key details of the listing filled out by the seller such as apartment/residential style, bed/bath, garage, and other amenities" style="text;html=1;align=left;verticalAlign=middle;whiteSpace=wrap;rounded=0;fontColor=#0066CC;" vertex="1" parent="1">
          <mxGeometry x="20" y="666" width="210" height="107.5" as="geometry" />
        </mxCell>
        <mxCell id="ltXApqwGF8x-7NpE5l84-122" value="&lt;span style=&quot;font-family: &amp;quot;Open Sans&amp;quot;, Arial, sans-serif; background-color: rgb(255, 255, 255); font-size: 10px;&quot;&gt;&lt;font style=&quot;font-size: 10px;&quot;&gt;&lt;span style=&quot;font-size: 10px;&quot;&gt;Listed by: Lorem ipsum dolor sit amet&lt;/span&gt;&lt;/font&gt;&lt;/span&gt;" style="text;html=1;align=left;verticalAlign=middle;whiteSpace=wrap;rounded=0;fontSize=10;fontStyle=0" vertex="1" parent="1">
          <mxGeometry x="622.5" y="499" width="195" height="43.5" as="geometry" />
        </mxCell>
        <mxCell id="ltXApqwGF8x-7NpE5l84-124" value="" style="ellipse;whiteSpace=wrap;html=1;aspect=fixed;" vertex="1" parent="1">
          <mxGeometry x="797" y="512.75" width="16" height="16" as="geometry" />
        </mxCell>
        <mxCell id="ltXApqwGF8x-7NpE5l84-123" value="" style="sketch=0;pointerEvents=1;shadow=0;dashed=0;html=1;strokeColor=none;labelPosition=center;verticalLabelPosition=bottom;verticalAlign=top;align=center;fillColor=#505050;shape=mxgraph.mscae.intune.account_portal" vertex="1" parent="1">
          <mxGeometry x="800" y="515.75" width="10" height="10" as="geometry" />
        </mxCell>
        <mxCell id="ltXApqwGF8x-7NpE5l84-125" value="&lt;ul&gt;&lt;li&gt;&lt;span style=&quot;background-color: initial;&quot;&gt;Lorem ipsum&lt;/span&gt;&lt;/li&gt;&lt;li&gt;&lt;span style=&quot;background-color: initial;&quot;&gt;Lorem ipsum&lt;/span&gt;&lt;/li&gt;&lt;li&gt;&lt;span style=&quot;background-color: initial;&quot;&gt;Lorem ipsum&lt;/span&gt;&lt;/li&gt;&lt;li&gt;&lt;span style=&quot;background-color: initial;&quot;&gt;Lorem ipsum&lt;/span&gt;&lt;/li&gt;&lt;/ul&gt;" style="text;html=1;align=left;verticalAlign=middle;whiteSpace=wrap;rounded=0;" vertex="1" parent="1">
          <mxGeometry x="598" y="528.75" width="195" height="97.5" as="geometry" />
        </mxCell>
        <mxCell id="ltXApqwGF8x-7NpE5l84-126" value="&lt;ul&gt;&lt;li&gt;&lt;span style=&quot;background-color: initial;&quot;&gt;Lorem ipsum&lt;/span&gt;&lt;/li&gt;&lt;li&gt;&lt;span style=&quot;background-color: initial;&quot;&gt;Lorem ipsum&lt;/span&gt;&lt;/li&gt;&lt;li&gt;&lt;span style=&quot;background-color: initial;&quot;&gt;Lorem ipsum&lt;/span&gt;&lt;/li&gt;&lt;li&gt;&lt;span style=&quot;background-color: initial;&quot;&gt;Lorem ipsum&lt;/span&gt;&lt;/li&gt;&lt;/ul&gt;" style="text;html=1;align=left;verticalAlign=middle;whiteSpace=wrap;rounded=0;" vertex="1" parent="1">
          <mxGeometry x="700.5" y="528.75" width="195" height="97.5" as="geometry" />
        </mxCell>
        <mxCell id="ltXApqwGF8x-7NpE5l84-127" value="" style="verticalLabelPosition=bottom;verticalAlign=top;html=1;shape=mxgraph.basic.drop;strokeColor=#377df7;direction=east;fontColor=#007FFF;" vertex="1" parent="1">
          <mxGeometry x="652.5" y="606" width="16" height="26" as="geometry" />
        </mxCell>
        <mxCell id="ltXApqwGF8x-7NpE5l84-128" value="6" style="text;html=1;align=center;verticalAlign=middle;resizable=0;points=[];autosize=1;strokeColor=none;fillColor=none;fontColor=#007FFF;" vertex="1" parent="1">
          <mxGeometry x="644.5" y="610" width="30" height="30" as="geometry" />
        </mxCell>
        <mxCell id="ltXApqwGF8x-7NpE5l84-129" value="6. Quick bullet points written by the seller about the listing to include other details not included in note 5" style="text;html=1;align=left;verticalAlign=middle;whiteSpace=wrap;rounded=0;fontColor=#0066CC;" vertex="1" parent="1">
          <mxGeometry x="20" y="750" width="210" height="107.5" as="geometry" />
        </mxCell>
        <mxCell id="ltXApqwGF8x-7NpE5l84-132" value="" style="verticalLabelPosition=bottom;verticalAlign=top;html=1;shape=mxgraph.basic.drop;strokeColor=#377df7;direction=north;fontColor=#007FFF;" vertex="1" parent="1">
          <mxGeometry x="814" y="512.75" width="26" height="16" as="geometry" />
        </mxCell>
        <mxCell id="ltXApqwGF8x-7NpE5l84-133" value="7" style="text;html=1;align=center;verticalAlign=middle;resizable=0;points=[];autosize=1;strokeColor=none;fillColor=none;fontColor=#007FFF;rotation=0;" vertex="1" parent="1">
          <mxGeometry x="814" y="506" width="30" height="30" as="geometry" />
        </mxCell>
        <mxCell id="ltXApqwGF8x-7NpE5l84-134" value="7. User clicks on the lister name or profile icon to bring them to a chat room with the lister (pop-up). The top of the chat will have the lister&#39;s name or company name, email, and phone number" style="text;html=1;align=left;verticalAlign=middle;whiteSpace=wrap;rounded=0;fontColor=#0066CC;" vertex="1" parent="1">
          <mxGeometry x="20" y="840" width="210" height="107.5" as="geometry" />
        </mxCell>
        <mxCell id="vT1tdoqy6VIrfNu_uSAD-1" value="messages" style="rounded=0;whiteSpace=wrap;html=1;fontSize=9;" vertex="1" parent="1">
          <mxGeometry x="650" y="335" width="53" height="10" as="geometry" />
        </mxCell>
      </root>
    </mxGraphModel>
  </diagram>
  <diagram id="dNwCX83D-gVbcYo_T2-q" name="Contact Seller">
    <mxGraphModel dx="819" dy="482" grid="1" gridSize="10" guides="1" tooltips="1" connect="1" arrows="1" fold="1" page="1" pageScale="1" pageWidth="850" pageHeight="1100" math="0" shadow="0">
      <root>
        <mxCell id="0" />
        <mxCell id="1" parent="0" />
        <mxCell id="Y7OiXftZTC8zNzcjsZVB-1" value="" style="rounded=0;whiteSpace=wrap;html=1;fontColor=#007FFF;strokeColor=#007FFF;" vertex="1" parent="1">
          <mxGeometry x="20" y="265" width="210" height="465" as="geometry" />
        </mxCell>
        <mxCell id="Y7OiXftZTC8zNzcjsZVB-2" value="Annotations" style="rounded=0;whiteSpace=wrap;html=1;fontColor=#007FFF;strokeColor=#007FFF;fontSize=15;" vertex="1" parent="1">
          <mxGeometry x="20" y="265" width="210" height="45" as="geometry" />
        </mxCell>
        <mxCell id="SoRJ7n6r_NUEH0-Zx3k8-1" value="" style="verticalLabelPosition=bottom;verticalAlign=top;html=1;shape=mxgraph.basic.drop;strokeColor=#377df7;direction=east;fontColor=#007FFF;" vertex="1" parent="1">
          <mxGeometry x="274.5" y="176" width="16" height="26" as="geometry" />
        </mxCell>
        <mxCell id="SoRJ7n6r_NUEH0-Zx3k8-2" value="1" style="text;html=1;align=center;verticalAlign=middle;resizable=0;points=[];autosize=1;strokeColor=none;fillColor=none;fontColor=#007FFF;" vertex="1" parent="1">
          <mxGeometry x="267" y="176" width="30" height="30" as="geometry" />
        </mxCell>
        <mxCell id="1K-OuiYbrZlSFXotq-ZW-69" value="" style="rounded=0;whiteSpace=wrap;html=1;" vertex="1" parent="1">
          <mxGeometry x="270" y="320" width="560" height="350" as="geometry" />
        </mxCell>
        <mxCell id="1K-OuiYbrZlSFXotq-ZW-70" value="" style="rounded=0;whiteSpace=wrap;html=1;" vertex="1" parent="1">
          <mxGeometry x="270" y="320" width="560" height="20" as="geometry" />
        </mxCell>
        <mxCell id="1K-OuiYbrZlSFXotq-ZW-71" value="" style="rounded=1;whiteSpace=wrap;html=1;" vertex="1" parent="1">
          <mxGeometry x="350" y="325" width="430" height="10" as="geometry" />
        </mxCell>
        <mxCell id="1K-OuiYbrZlSFXotq-ZW-72" value="&lt;font style=&quot;font-size: 6px;&quot;&gt;https:unemployedexperiencedesign.com&lt;/font&gt;" style="text;html=1;align=center;verticalAlign=middle;whiteSpace=wrap;rounded=0;" vertex="1" parent="1">
          <mxGeometry x="310" y="323" width="210" height="10" as="geometry" />
        </mxCell>
        <mxCell id="1K-OuiYbrZlSFXotq-ZW-73" value="rent" style="rounded=0;whiteSpace=wrap;html=1;fontSize=9;" vertex="1" parent="1">
          <mxGeometry x="282" y="345" width="33" height="10" as="geometry" />
        </mxCell>
        <mxCell id="1K-OuiYbrZlSFXotq-ZW-74" value="buy" style="rounded=0;whiteSpace=wrap;html=1;fontSize=9;" vertex="1" parent="1">
          <mxGeometry x="322" y="345" width="33" height="10" as="geometry" />
        </mxCell>
        <mxCell id="1K-OuiYbrZlSFXotq-ZW-75" value="browse" style="rounded=0;whiteSpace=wrap;html=1;fontSize=9;" vertex="1" parent="1">
          <mxGeometry x="362" y="345" width="33" height="10" as="geometry" />
        </mxCell>
        <mxCell id="1K-OuiYbrZlSFXotq-ZW-76" value="saved" style="rounded=0;whiteSpace=wrap;html=1;fontSize=9;" vertex="1" parent="1">
          <mxGeometry x="760" y="345" width="33" height="10" as="geometry" />
        </mxCell>
        <mxCell id="1K-OuiYbrZlSFXotq-ZW-77" value="" style="ellipse;whiteSpace=wrap;html=1;aspect=fixed;" vertex="1" parent="1">
          <mxGeometry x="800" y="342" width="16" height="16" as="geometry" />
        </mxCell>
        <mxCell id="1K-OuiYbrZlSFXotq-ZW-78" value="" style="endArrow=none;html=1;rounded=0;exitX=0.003;exitY=0.162;exitDx=0;exitDy=0;exitPerimeter=0;arcSize=0;" edge="1" parent="1">
          <mxGeometry width="50" height="50" relative="1" as="geometry">
            <mxPoint x="269.99999999999994" y="360.00000000000006" as="sourcePoint" />
            <mxPoint x="830" y="361" as="targetPoint" />
          </mxGeometry>
        </mxCell>
        <mxCell id="1K-OuiYbrZlSFXotq-ZW-79" value="help" style="rounded=0;whiteSpace=wrap;html=1;fontSize=9;" vertex="1" parent="1">
          <mxGeometry x="720" y="345" width="33" height="10" as="geometry" />
        </mxCell>
        <mxCell id="1K-OuiYbrZlSFXotq-ZW-80" value="" style="rounded=0;whiteSpace=wrap;html=1;" vertex="1" parent="1">
          <mxGeometry x="500" y="340" width="120" height="20" as="geometry" />
        </mxCell>
        <mxCell id="1K-OuiYbrZlSFXotq-ZW-81" value="" style="endArrow=none;html=1;rounded=0;exitX=0;exitY=1;exitDx=0;exitDy=0;entryX=1;entryY=0;entryDx=0;entryDy=0;" edge="1" parent="1" source="1K-OuiYbrZlSFXotq-ZW-80" target="1K-OuiYbrZlSFXotq-ZW-80">
          <mxGeometry width="50" height="50" relative="1" as="geometry">
            <mxPoint x="470" y="420" as="sourcePoint" />
            <mxPoint x="520" y="370" as="targetPoint" />
          </mxGeometry>
        </mxCell>
        <mxCell id="1K-OuiYbrZlSFXotq-ZW-82" value="" style="endArrow=none;html=1;rounded=0;exitX=0;exitY=0;exitDx=0;exitDy=0;entryX=1;entryY=1;entryDx=0;entryDy=0;" edge="1" parent="1" source="1K-OuiYbrZlSFXotq-ZW-80" target="1K-OuiYbrZlSFXotq-ZW-80">
          <mxGeometry width="50" height="50" relative="1" as="geometry">
            <mxPoint x="510" y="370" as="sourcePoint" />
            <mxPoint x="630" y="350" as="targetPoint" />
          </mxGeometry>
        </mxCell>
        <mxCell id="1K-OuiYbrZlSFXotq-ZW-83" value="&lt;font style=&quot;font-size: 9px;&quot;&gt;about us&lt;/font&gt;" style="rounded=0;whiteSpace=wrap;html=1;fontSize=9;" vertex="1" parent="1">
          <mxGeometry x="402" y="345" width="38" height="10" as="geometry" />
        </mxCell>
        <mxCell id="1K-OuiYbrZlSFXotq-ZW-84" value="" style="sketch=0;pointerEvents=1;shadow=0;dashed=0;html=1;strokeColor=none;labelPosition=center;verticalLabelPosition=bottom;verticalAlign=top;align=center;fillColor=#505050;shape=mxgraph.mscae.intune.account_portal" vertex="1" parent="1">
          <mxGeometry x="803" y="345" width="10" height="10" as="geometry" />
        </mxCell>
        <mxCell id="1K-OuiYbrZlSFXotq-ZW-85" value="" style="verticalLabelPosition=bottom;shadow=0;dashed=0;align=center;html=1;verticalAlign=top;strokeWidth=1;shape=mxgraph.mockup.graphics.simpleIcon;strokeColor=#999999;" vertex="1" parent="1">
          <mxGeometry x="282" y="377.5" width="348" height="272.5" as="geometry" />
        </mxCell>
        <mxCell id="1K-OuiYbrZlSFXotq-ZW-86" value="" style="line;strokeWidth=2;direction=south;html=1;" vertex="1" parent="1">
          <mxGeometry x="265" y="320" width="10" height="350" as="geometry" />
        </mxCell>
        <mxCell id="1K-OuiYbrZlSFXotq-ZW-87" value="" style="line;strokeWidth=2;direction=south;html=1;" vertex="1" parent="1">
          <mxGeometry x="824" y="320" width="10" height="350" as="geometry" />
        </mxCell>
        <mxCell id="1K-OuiYbrZlSFXotq-ZW-88" value="" style="line;strokeWidth=2;html=1;" vertex="1" parent="1">
          <mxGeometry x="270" y="664" width="560" height="10" as="geometry" />
        </mxCell>
        <mxCell id="1K-OuiYbrZlSFXotq-ZW-89" value="" style="line;strokeWidth=2;html=1;" vertex="1" parent="1">
          <mxGeometry x="270" y="315" width="560" height="10" as="geometry" />
        </mxCell>
        <mxCell id="1K-OuiYbrZlSFXotq-ZW-90" value="" style="endArrow=none;html=1;rounded=0;fontColor=#B3B3B3;strokeColor=#999999;" edge="1" parent="1">
          <mxGeometry width="50" height="50" relative="1" as="geometry">
            <mxPoint x="275" y="330.5" as="sourcePoint" />
            <mxPoint x="278" y="326.5" as="targetPoint" />
          </mxGeometry>
        </mxCell>
        <mxCell id="1K-OuiYbrZlSFXotq-ZW-91" value="" style="endArrow=none;html=1;rounded=0;fontColor=#B3B3B3;strokeColor=#999999;" edge="1" parent="1">
          <mxGeometry width="50" height="50" relative="1" as="geometry">
            <mxPoint x="275" y="330.5" as="sourcePoint" />
            <mxPoint x="282" y="330.5" as="targetPoint" />
          </mxGeometry>
        </mxCell>
        <mxCell id="1K-OuiYbrZlSFXotq-ZW-92" value="" style="endArrow=none;html=1;rounded=0;fontColor=#B3B3B3;strokeColor=#999999;strokeWidth=1;" edge="1" parent="1">
          <mxGeometry width="50" height="50" relative="1" as="geometry">
            <mxPoint x="275" y="330.5" as="sourcePoint" />
            <mxPoint x="278" y="334.5" as="targetPoint" />
          </mxGeometry>
        </mxCell>
        <mxCell id="1K-OuiYbrZlSFXotq-ZW-93" value="" style="endArrow=none;html=1;rounded=0;fontColor=#B3B3B3;strokeColor=#999999;" edge="1" parent="1">
          <mxGeometry width="50" height="50" relative="1" as="geometry">
            <mxPoint x="296" y="330.5" as="sourcePoint" />
            <mxPoint x="292" y="326.5" as="targetPoint" />
          </mxGeometry>
        </mxCell>
        <mxCell id="1K-OuiYbrZlSFXotq-ZW-94" value="" style="endArrow=none;html=1;rounded=0;fontColor=#B3B3B3;strokeColor=#999999;" edge="1" parent="1">
          <mxGeometry width="50" height="50" relative="1" as="geometry">
            <mxPoint x="296" y="330.5" as="sourcePoint" />
            <mxPoint x="289" y="330.5" as="targetPoint" />
          </mxGeometry>
        </mxCell>
        <mxCell id="1K-OuiYbrZlSFXotq-ZW-95" value="" style="endArrow=none;html=1;rounded=0;fontColor=#B3B3B3;strokeColor=#999999;strokeWidth=1;" edge="1" parent="1">
          <mxGeometry width="50" height="50" relative="1" as="geometry">
            <mxPoint x="296" y="330.5" as="sourcePoint" />
            <mxPoint x="292" y="334.5" as="targetPoint" />
          </mxGeometry>
        </mxCell>
        <mxCell id="1K-OuiYbrZlSFXotq-ZW-96" value="" style="html=1;verticalLabelPosition=bottom;align=center;labelBackgroundColor=#ffffff;verticalAlign=top;strokeWidth=1;strokeColor=#999999;shadow=0;dashed=0;shape=mxgraph.ios7.icons.reload;direction=south;" vertex="1" parent="1">
          <mxGeometry x="307" y="326.5" width="8" height="8" as="geometry" />
        </mxCell>
        <mxCell id="1K-OuiYbrZlSFXotq-ZW-97" value="" style="html=1;verticalLabelPosition=bottom;align=center;labelBackgroundColor=#ffffff;verticalAlign=top;strokeWidth=1;strokeColor=#999999;shadow=0;dashed=0;shape=mxgraph.ios7.icons.home;" vertex="1" parent="1">
          <mxGeometry x="327" y="325.5" width="9" height="9" as="geometry" />
        </mxCell>
        <mxCell id="1K-OuiYbrZlSFXotq-ZW-98" value="" style="shape=image;verticalLabelPosition=bottom;labelBackgroundColor=default;verticalAlign=top;aspect=fixed;imageAspect=0;image=https://icons.veryicon.com/png/o/miscellaneous/common-icons-of-web-system/caret-down-20.png;direction=south;" vertex="1" parent="1">
          <mxGeometry x="284.5" y="493.5" width="28" height="28" as="geometry" />
        </mxCell>
        <mxCell id="1K-OuiYbrZlSFXotq-ZW-99" value="" style="triangle;whiteSpace=wrap;html=1;direction=west;strokeColor=none;" vertex="1" parent="1">
          <mxGeometry x="295" y="492.5" width="15" height="30" as="geometry" />
        </mxCell>
        <mxCell id="1K-OuiYbrZlSFXotq-ZW-100" value="" style="shape=image;verticalLabelPosition=bottom;labelBackgroundColor=default;verticalAlign=top;aspect=fixed;imageAspect=0;image=https://icons.veryicon.com/png/o/miscellaneous/common-icons-of-web-system/caret-down-20.png;direction=north;" vertex="1" parent="1">
          <mxGeometry x="601" y="493.5" width="28" height="28" as="geometry" />
        </mxCell>
        <mxCell id="1K-OuiYbrZlSFXotq-ZW-101" value="" style="triangle;whiteSpace=wrap;html=1;direction=east;strokeColor=none;" vertex="1" parent="1">
          <mxGeometry x="603" y="492.5" width="15" height="30" as="geometry" />
        </mxCell>
        <mxCell id="1K-OuiYbrZlSFXotq-ZW-108" value="&lt;span style=&quot;font-family: &amp;quot;Open Sans&amp;quot;, Arial, sans-serif; background-color: rgb(255, 255, 255); font-size: 15px;&quot;&gt;&lt;font style=&quot;font-size: 15px;&quot;&gt;&lt;b style=&quot;font-size: 15px;&quot;&gt;Lorem ipsum dolor sit amet&lt;/b&gt;&lt;/font&gt;&lt;/span&gt;" style="text;html=1;align=left;verticalAlign=middle;whiteSpace=wrap;rounded=0;fontSize=15;" vertex="1" parent="1">
          <mxGeometry x="654.5" y="370" width="150" height="43.5" as="geometry" />
        </mxCell>
        <mxCell id="1K-OuiYbrZlSFXotq-ZW-109" value="$xxx,xxx" style="text;html=1;align=left;verticalAlign=middle;whiteSpace=wrap;rounded=0;fontStyle=1;fontSize=13;fontColor=#999999;" vertex="1" parent="1">
          <mxGeometry x="654.5" y="403" width="60" height="30" as="geometry" />
        </mxCell>
        <mxCell id="1K-OuiYbrZlSFXotq-ZW-110" value="listed xxx" style="text;html=1;align=left;verticalAlign=middle;whiteSpace=wrap;rounded=0;fontSize=11;fontColor=#999999;" vertex="1" parent="1">
          <mxGeometry x="654.5" y="420" width="60" height="30" as="geometry" />
        </mxCell>
        <mxCell id="1K-OuiYbrZlSFXotq-ZW-113" value="Lorem ipsum" style="text;html=1;align=left;verticalAlign=middle;whiteSpace=wrap;rounded=0;fontSize=8;fontStyle=0" vertex="1" parent="1">
          <mxGeometry x="635" y="480" width="60" height="20" as="geometry" />
        </mxCell>
        <mxCell id="1K-OuiYbrZlSFXotq-ZW-114" value="&lt;font style=&quot;font-size: 10px;&quot; color=&quot;#ffffff&quot;&gt;contact&lt;/font&gt;" style="rounded=1;whiteSpace=wrap;html=1;strokeColor=none;fillColor=#999999;" vertex="1" parent="1">
          <mxGeometry x="640" y="450" width="50" height="20" as="geometry" />
        </mxCell>
        <mxCell id="1K-OuiYbrZlSFXotq-ZW-115" value="&lt;font style=&quot;font-size: 10px;&quot; color=&quot;#ffffff&quot;&gt;add&lt;/font&gt;" style="rounded=1;whiteSpace=wrap;html=1;strokeColor=none;fillColor=#999999;" vertex="1" parent="1">
          <mxGeometry x="700" y="450" width="50" height="20" as="geometry" />
        </mxCell>
        <mxCell id="1K-OuiYbrZlSFXotq-ZW-116" value="&lt;font style=&quot;font-size: 10px;&quot; color=&quot;#ffffff&quot;&gt;share&lt;/font&gt;" style="rounded=1;whiteSpace=wrap;html=1;strokeColor=none;fillColor=#999999;" vertex="1" parent="1">
          <mxGeometry x="760" y="450" width="50" height="20" as="geometry" />
        </mxCell>
        <mxCell id="1K-OuiYbrZlSFXotq-ZW-117" value="Lorem ipsum" style="text;html=1;align=left;verticalAlign=middle;whiteSpace=wrap;rounded=0;fontSize=8;fontStyle=0" vertex="1" parent="1">
          <mxGeometry x="700" y="480" width="60" height="20" as="geometry" />
        </mxCell>
        <mxCell id="1K-OuiYbrZlSFXotq-ZW-118" value="Lorem ipsum" style="text;html=1;align=left;verticalAlign=middle;whiteSpace=wrap;rounded=0;fontSize=8;fontStyle=0" vertex="1" parent="1">
          <mxGeometry x="764" y="480" width="60" height="20" as="geometry" />
        </mxCell>
        <mxCell id="1K-OuiYbrZlSFXotq-ZW-119" value="Lorem ipsum" style="text;html=1;align=left;verticalAlign=middle;whiteSpace=wrap;rounded=0;fontSize=8;fontStyle=0" vertex="1" parent="1">
          <mxGeometry x="635" y="500" width="60" height="20" as="geometry" />
        </mxCell>
        <mxCell id="1K-OuiYbrZlSFXotq-ZW-120" value="Lorem ipsum" style="text;html=1;align=left;verticalAlign=middle;whiteSpace=wrap;rounded=0;fontSize=8;fontStyle=0" vertex="1" parent="1">
          <mxGeometry x="699.5" y="498.75" width="60" height="20" as="geometry" />
        </mxCell>
        <mxCell id="1K-OuiYbrZlSFXotq-ZW-121" value="" style="verticalLabelPosition=bottom;shadow=0;dashed=0;align=center;html=1;verticalAlign=top;strokeWidth=1;shape=mxgraph.mockup.graphics.simpleIcon;strokeColor=#999999;" vertex="1" parent="1">
          <mxGeometry x="687" y="486.25" width="8" height="7.5" as="geometry" />
        </mxCell>
        <mxCell id="1K-OuiYbrZlSFXotq-ZW-122" value="" style="verticalLabelPosition=bottom;shadow=0;dashed=0;align=center;html=1;verticalAlign=top;strokeWidth=1;shape=mxgraph.mockup.graphics.simpleIcon;strokeColor=#999999;" vertex="1" parent="1">
          <mxGeometry x="753" y="486.25" width="8" height="7.5" as="geometry" />
        </mxCell>
        <mxCell id="1K-OuiYbrZlSFXotq-ZW-123" value="" style="verticalLabelPosition=bottom;shadow=0;dashed=0;align=center;html=1;verticalAlign=top;strokeWidth=1;shape=mxgraph.mockup.graphics.simpleIcon;strokeColor=#999999;" vertex="1" parent="1">
          <mxGeometry x="816" y="486.25" width="8" height="7.5" as="geometry" />
        </mxCell>
        <mxCell id="1K-OuiYbrZlSFXotq-ZW-124" value="" style="verticalLabelPosition=bottom;shadow=0;dashed=0;align=center;html=1;verticalAlign=top;strokeWidth=1;shape=mxgraph.mockup.graphics.simpleIcon;strokeColor=#999999;" vertex="1" parent="1">
          <mxGeometry x="687" y="506.25" width="8" height="7.5" as="geometry" />
        </mxCell>
        <mxCell id="1K-OuiYbrZlSFXotq-ZW-125" value="" style="verticalLabelPosition=bottom;shadow=0;dashed=0;align=center;html=1;verticalAlign=top;strokeWidth=1;shape=mxgraph.mockup.graphics.simpleIcon;strokeColor=#999999;" vertex="1" parent="1">
          <mxGeometry x="753" y="506.25" width="8" height="7.5" as="geometry" />
        </mxCell>
        <mxCell id="1K-OuiYbrZlSFXotq-ZW-128" value="&lt;span style=&quot;font-family: &amp;quot;Open Sans&amp;quot;, Arial, sans-serif; background-color: rgb(255, 255, 255); font-size: 10px;&quot;&gt;&lt;font style=&quot;font-size: 10px;&quot;&gt;&lt;span style=&quot;font-size: 10px;&quot;&gt;Listed by: Lorem ipsum dolor sit amet&lt;/span&gt;&lt;/font&gt;&lt;/span&gt;" style="text;html=1;align=left;verticalAlign=middle;whiteSpace=wrap;rounded=0;fontSize=10;fontStyle=0" vertex="1" parent="1">
          <mxGeometry x="632.5" y="509" width="195" height="43.5" as="geometry" />
        </mxCell>
        <mxCell id="1K-OuiYbrZlSFXotq-ZW-129" value="" style="ellipse;whiteSpace=wrap;html=1;aspect=fixed;" vertex="1" parent="1">
          <mxGeometry x="807" y="522.75" width="16" height="16" as="geometry" />
        </mxCell>
        <mxCell id="1K-OuiYbrZlSFXotq-ZW-130" value="" style="sketch=0;pointerEvents=1;shadow=0;dashed=0;html=1;strokeColor=none;labelPosition=center;verticalLabelPosition=bottom;verticalAlign=top;align=center;fillColor=#505050;shape=mxgraph.mscae.intune.account_portal" vertex="1" parent="1">
          <mxGeometry x="810" y="525.75" width="10" height="10" as="geometry" />
        </mxCell>
        <mxCell id="1K-OuiYbrZlSFXotq-ZW-131" value="&lt;ul&gt;&lt;li&gt;&lt;span style=&quot;background-color: initial;&quot;&gt;Lorem ipsum&lt;/span&gt;&lt;/li&gt;&lt;li&gt;&lt;span style=&quot;background-color: initial;&quot;&gt;Lorem ipsum&lt;/span&gt;&lt;/li&gt;&lt;li&gt;&lt;span style=&quot;background-color: initial;&quot;&gt;Lorem ipsum&lt;/span&gt;&lt;/li&gt;&lt;li&gt;&lt;span style=&quot;background-color: initial;&quot;&gt;Lorem ipsum&lt;/span&gt;&lt;/li&gt;&lt;/ul&gt;" style="text;html=1;align=left;verticalAlign=middle;whiteSpace=wrap;rounded=0;" vertex="1" parent="1">
          <mxGeometry x="608" y="538.75" width="195" height="97.5" as="geometry" />
        </mxCell>
        <mxCell id="1K-OuiYbrZlSFXotq-ZW-136" value="messages" style="rounded=0;whiteSpace=wrap;html=1;fontSize=9;" vertex="1" parent="1">
          <mxGeometry x="660" y="345" width="53" height="10" as="geometry" />
        </mxCell>
        <mxCell id="1K-OuiYbrZlSFXotq-ZW-137" value="" style="rounded=0;whiteSpace=wrap;html=1;arcSize=5;" vertex="1" parent="1">
          <mxGeometry x="645.5" y="480" width="169" height="184" as="geometry" />
        </mxCell>
        <mxCell id="McbbwVC95gKSn3r38eF5-1" value="" style="verticalLabelPosition=bottom;shadow=0;dashed=0;align=center;html=1;verticalAlign=top;strokeWidth=1;shape=mxgraph.mockup.graphics.simpleIcon;strokeColor=#000000;" vertex="1" parent="1">
          <mxGeometry x="645.5" y="480" width="108" height="40" as="geometry" />
        </mxCell>
        <mxCell id="tG3NVhX_XTR500LjnF7H-1" value="&lt;span style=&quot;font-family: &amp;quot;Open Sans&amp;quot;, Arial, sans-serif; background-color: rgb(255, 255, 255);&quot;&gt;&lt;font style=&quot;font-size: 9px;&quot;&gt;Listed by: Lorem ipsum dolor sit amet&lt;/font&gt;&lt;/span&gt;" style="text;html=1;align=center;verticalAlign=middle;whiteSpace=wrap;rounded=0;fontSize=10;fontStyle=0" vertex="1" parent="1">
          <mxGeometry x="638.25" y="513.75" width="182.5" height="43.5" as="geometry" />
        </mxCell>
        <mxCell id="tG3NVhX_XTR500LjnF7H-2" value="" style="ellipse;whiteSpace=wrap;html=1;aspect=fixed;" vertex="1" parent="1">
          <mxGeometry x="771" y="485.75" width="28" height="28" as="geometry" />
        </mxCell>
        <mxCell id="tG3NVhX_XTR500LjnF7H-3" value="" style="sketch=0;pointerEvents=1;shadow=0;dashed=0;html=1;strokeColor=none;labelPosition=center;verticalLabelPosition=bottom;verticalAlign=top;align=center;fillColor=#505050;shape=mxgraph.mscae.intune.account_portal" vertex="1" parent="1">
          <mxGeometry x="777.5" y="491.25" width="15" height="15" as="geometry" />
        </mxCell>
        <mxCell id="tG3NVhX_XTR500LjnF7H-4" value="&lt;font style=&quot;font-size: 10px;&quot;&gt;Aa&lt;/font&gt;" style="rounded=1;whiteSpace=wrap;html=1;align=left;" vertex="1" parent="1">
          <mxGeometry x="649" y="640" width="161" height="17.88" as="geometry" />
        </mxCell>
        <mxCell id="tG3NVhX_XTR500LjnF7H-5" value="" style="rounded=1;whiteSpace=wrap;html=1;fillColor=#999999;strokeColor=default;strokeWidth=0.25;" vertex="1" parent="1">
          <mxGeometry x="789.5" y="642.94" width="15" height="12" as="geometry" />
        </mxCell>
        <mxCell id="tG3NVhX_XTR500LjnF7H-7" value="" style="html=1;verticalLabelPosition=bottom;align=center;labelBackgroundColor=#ffffff;verticalAlign=top;strokeWidth=0.75;strokeColor=#999999;shadow=0;dashed=0;shape=mxgraph.ios7.icons.pointer;" vertex="1" parent="1">
          <mxGeometry x="792.5" y="644.9399999999999" width="9" height="8" as="geometry" />
        </mxCell>
        <mxCell id="tG3NVhX_XTR500LjnF7H-8" value="" style="rounded=1;whiteSpace=wrap;html=1;" vertex="1" parent="1">
          <mxGeometry x="719" y="616.25" width="91" height="20" as="geometry" />
        </mxCell>
        <mxCell id="tG3NVhX_XTR500LjnF7H-9" value="&lt;font style=&quot;font-size: 7px;&quot; color=&quot;#ffffff&quot;&gt;lorem ipsum&lt;/font&gt;" style="rounded=1;whiteSpace=wrap;html=1;strokeColor=#999999;fillColor=#999999;align=left;labelPosition=center;verticalLabelPosition=middle;verticalAlign=middle;" vertex="1" parent="1">
          <mxGeometry x="667" y="577.5" width="91" height="20" as="geometry" />
        </mxCell>
        <mxCell id="tG3NVhX_XTR500LjnF7H-10" value="" style="ellipse;whiteSpace=wrap;html=1;aspect=fixed;" vertex="1" parent="1">
          <mxGeometry x="649" y="580" width="15" height="15" as="geometry" />
        </mxCell>
        <mxCell id="tG3NVhX_XTR500LjnF7H-11" value="" style="sketch=0;pointerEvents=1;shadow=0;dashed=0;html=1;strokeColor=none;labelPosition=center;verticalLabelPosition=bottom;verticalAlign=top;align=center;fillColor=#505050;shape=mxgraph.mscae.intune.account_portal" vertex="1" parent="1">
          <mxGeometry x="653" y="584" width="7" height="7" as="geometry" />
        </mxCell>
        <mxCell id="tG3NVhX_XTR500LjnF7H-12" value="&lt;font color=&quot;#ffffff&quot; style=&quot;font-size: 7px;&quot;&gt;lorem ipsum&lt;/font&gt;" style="rounded=1;whiteSpace=wrap;html=1;strokeColor=#999999;fillColor=#999999;align=right;labelPosition=center;verticalLabelPosition=middle;verticalAlign=middle;" vertex="1" parent="1">
          <mxGeometry x="719" y="616.25" width="91" height="20" as="geometry" />
        </mxCell>
        <mxCell id="tG3NVhX_XTR500LjnF7H-13" value="" style="rounded=0;whiteSpace=wrap;html=1;arcSize=5;" vertex="1" parent="1">
          <mxGeometry x="645.5" y="470" width="169" height="10" as="geometry" />
        </mxCell>
        <mxCell id="tG3NVhX_XTR500LjnF7H-14" value="" style="shape=mxgraph.sysml.x;" vertex="1" parent="1">
          <mxGeometry x="805" y="472" width="5" height="5" as="geometry" />
        </mxCell>
        <mxCell id="tG3NVhX_XTR500LjnF7H-15" value="" style="line;strokeWidth=1;html=1;" vertex="1" parent="1">
          <mxGeometry x="790" y="469.5" width="10" height="10" as="geometry" />
        </mxCell>
        <mxCell id="tG3NVhX_XTR500LjnF7H-20" value="" style="verticalLabelPosition=bottom;verticalAlign=top;html=1;shape=mxgraph.basic.drop;strokeColor=#377df7;direction=east;fontColor=#007FFF;rotation=90;" vertex="1" parent="1">
          <mxGeometry x="623.5" y="537.75" width="16" height="26" as="geometry" />
        </mxCell>
        <mxCell id="tG3NVhX_XTR500LjnF7H-21" value="1" style="text;html=1;align=center;verticalAlign=middle;resizable=0;points=[];autosize=1;strokeColor=none;fillColor=none;fontColor=#007FFF;rotation=0;" vertex="1" parent="1">
          <mxGeometry x="611" y="535.75" width="30" height="30" as="geometry" />
        </mxCell>
        <mxCell id="e3HuGLzcVHNEg8U_kfS7-1" value="1. Upon clicking contact, a pop-up appears allowing the user to chat to the lister" style="text;html=1;align=left;verticalAlign=middle;whiteSpace=wrap;rounded=0;fontColor=#0066CC;" vertex="1" parent="1">
          <mxGeometry x="20" y="310" width="210" height="70" as="geometry" />
        </mxCell>
        <mxCell id="e3HuGLzcVHNEg8U_kfS7-2" value="2. contains a picture of the listing at the top of the chat so the user knows what house they are talking about if they access these messages outside of the listing" style="text;html=1;align=left;verticalAlign=middle;whiteSpace=wrap;rounded=0;fontColor=#0066CC;" vertex="1" parent="1">
          <mxGeometry x="20" y="367.5" width="210" height="92.5" as="geometry" />
        </mxCell>
        <mxCell id="e3HuGLzcVHNEg8U_kfS7-3" value="" style="verticalLabelPosition=bottom;verticalAlign=top;html=1;shape=mxgraph.basic.drop;strokeColor=#377df7;direction=east;fontColor=#007FFF;" vertex="1" parent="1">
          <mxGeometry x="694.5" y="518.75" width="16" height="26" as="geometry" />
        </mxCell>
        <mxCell id="e3HuGLzcVHNEg8U_kfS7-4" value="2" style="text;html=1;align=center;verticalAlign=middle;resizable=0;points=[];autosize=1;strokeColor=none;fillColor=none;fontColor=#007FFF;" vertex="1" parent="1">
          <mxGeometry x="687" y="518.75" width="30" height="30" as="geometry" />
        </mxCell>
        <mxCell id="e3HuGLzcVHNEg8U_kfS7-6" value="3. User can close or minimize the chat at any time and it is saved in the messages tab at the top of the screen" style="text;html=1;align=left;verticalAlign=middle;whiteSpace=wrap;rounded=0;fontColor=#0066CC;" vertex="1" parent="1">
          <mxGeometry x="20" y="438.75" width="210" height="80" as="geometry" />
        </mxCell>
        <mxCell id="e3HuGLzcVHNEg8U_kfS7-8" value="" style="verticalLabelPosition=bottom;verticalAlign=top;html=1;shape=mxgraph.basic.drop;strokeColor=#377df7;direction=south;fontColor=#007FFF;rotation=-180;" vertex="1" parent="1">
          <mxGeometry x="813" y="466.5" width="26" height="16" as="geometry" />
        </mxCell>
        <mxCell id="e3HuGLzcVHNEg8U_kfS7-9" value="3" style="text;html=1;align=center;verticalAlign=middle;resizable=0;points=[];autosize=1;strokeColor=none;fillColor=none;fontColor=#007FFF;" vertex="1" parent="1">
          <mxGeometry x="816" y="460" width="30" height="30" as="geometry" />
        </mxCell>
        <mxCell id="e3HuGLzcVHNEg8U_kfS7-12" value="" style="verticalLabelPosition=bottom;verticalAlign=top;html=1;shape=mxgraph.basic.drop;strokeColor=#377df7;direction=east;fontColor=#007FFF;rotation=-180;" vertex="1" parent="1">
          <mxGeometry x="676.5" y="317" width="16" height="26" as="geometry" />
        </mxCell>
        <mxCell id="e3HuGLzcVHNEg8U_kfS7-13" value="4" style="text;html=1;align=center;verticalAlign=middle;resizable=0;points=[];autosize=1;strokeColor=none;fillColor=none;fontColor=#007FFF;" vertex="1" parent="1">
          <mxGeometry x="669.5" y="310" width="30" height="30" as="geometry" />
        </mxCell>
        <mxCell id="e3HuGLzcVHNEg8U_kfS7-14" value="4. If the user wishes to access their messages, all messages are stored in this tab" style="text;html=1;align=left;verticalAlign=middle;whiteSpace=wrap;rounded=0;fontColor=#0066CC;" vertex="1" parent="1">
          <mxGeometry x="20" y="493.5" width="210" height="80" as="geometry" />
        </mxCell>
      </root>
    </mxGraphModel>
  </diagram>
</mxfile>
